<?xml version="1.0" encoding="utf-8" standalone="no"?>
<!DOCTYPE svg PUBLIC "-//W3C//DTD SVG 1.1//EN"
  "http://www.w3.org/Graphics/SVG/1.1/DTD/svg11.dtd">
<!-- Created with matplotlib (https://matplotlib.org/) -->
<svg height="605.70825pt" version="1.1" viewBox="0 0 1045.203125 605.70825" width="1045.203125pt" xmlns="http://www.w3.org/2000/svg" xmlns:xlink="http://www.w3.org/1999/xlink">
 <defs>
  <style type="text/css">
*{stroke-linecap:butt;stroke-linejoin:round;}
  </style>
 </defs>
 <g id="figure_1">
  <g id="patch_1">
   <path d="M 0 605.70825 
L 1045.203125 605.70825 
L 1045.203125 0 
L 0 0 
z
" style="fill:none;"/>
  </g>
  <g id="axes_1">
   <g id="patch_2">
    <path d="M 30.103125 581.830125 
L 1034.503125 581.830125 
L 1034.503125 38.230125 
L 30.103125 38.230125 
z
" style="fill:#ffffff;"/>
   </g>
   <g id="PathCollection_1">
    <defs>
     <path d="M 0 0.5 
C 0.132602 0.5 0.25979 0.447317 0.353553 0.353553 
C 0.447317 0.25979 0.5 0.132602 0.5 0 
C 0.5 -0.132602 0.447317 -0.25979 0.353553 -0.353553 
C 0.25979 -0.447317 0.132602 -0.5 0 -0.5 
C -0.132602 -0.5 -0.25979 -0.447317 -0.353553 -0.353553 
C -0.447317 -0.25979 -0.5 -0.132602 -0.5 0 
C -0.5 0.132602 -0.447317 0.25979 -0.353553 0.353553 
C -0.25979 0.447317 -0.132602 0.5 0 0.5 
z
" id="m3fa54e39d7" style="stroke:#1f77b4;"/>
    </defs>
    <g clip-path="url(#p4c53452ddd)">
     <use style="fill:#1f77b4;stroke:#1f77b4;" x="83.830238" xlink:href="#m3fa54e39d7" y="537.915763"/>
     <use style="fill:#1f77b4;stroke:#1f77b4;" x="110.887158" xlink:href="#m3fa54e39d7" y="482.293231"/>
     <use style="fill:#1f77b4;stroke:#1f77b4;" x="213.746746" xlink:href="#m3fa54e39d7" y="302.460551"/>
     <use style="fill:#1f77b4;stroke:#1f77b4;" x="546.301109" xlink:href="#m3fa54e39d7" y="63.69013"/>
     <use style="fill:#1f77b4;stroke:#1f77b4;" x="987.845687" xlink:href="#m3fa54e39d7" y="555.483046"/>
     <use style="fill:#1f77b4;stroke:#1f77b4;" x="78.400979" xlink:href="#m3fa54e39d7" y="549.494383"/>
     <use style="fill:#1f77b4;stroke:#1f77b4;" x="89.475474" xlink:href="#m3fa54e39d7" y="526.024483"/>
     <use style="fill:#1f77b4;stroke:#1f77b4;" x="132.877026" xlink:href="#m3fa54e39d7" y="439.63953"/>
     <use style="fill:#1f77b4;stroke:#1f77b4;" x="292.623813" xlink:href="#m3fa54e39d7" y="198.47858"/>
     <use style="fill:#1f77b4;stroke:#1f77b4;" x="738.589061" xlink:href="#m3fa54e39d7" y="164.443712"/>
     <use style="fill:#1f77b4;stroke:#1f77b4;" x="801.52781" xlink:href="#m3fa54e39d7" y="235.434126"/>
     <use style="fill:#1f77b4;stroke:#1f77b4;" x="670.24927" xlink:href="#m3fa54e39d7" y="108.591148"/>
     <use style="fill:#1f77b4;stroke:#1f77b4;" x="904.812785" xlink:href="#m3fa54e39d7" y="392.558706"/>
     <use style="fill:#1f77b4;stroke:#1f77b4;" x="379.687707" xlink:href="#m3fa54e39d7" y="117.891877"/>
     <use style="fill:#1f77b4;stroke:#1f77b4;" x="887.613475" xlink:href="#m3fa54e39d7" y="362.890217"/>
     <use style="fill:#1f77b4;stroke:#1f77b4;" x="434.551959" xlink:href="#m3fa54e39d7" y="85.535561"/>
     <use style="fill:#1f77b4;stroke:#1f77b4;" x="947.448172" xlink:href="#m3fa54e39d7" y="472.140695"/>
     <use style="fill:#1f77b4;stroke:#1f77b4;" x="232.521254" xlink:href="#m3fa54e39d7" y="275.040332"/>
     <use style="fill:#1f77b4;stroke:#1f77b4;" x="597.007763" xlink:href="#m3fa54e39d7" y="73.270708"/>
     <use style="fill:#1f77b4;stroke:#1f77b4;" x="970.128867" xlink:href="#m3fa54e39d7" y="517.981377"/>
     <use style="fill:#1f77b4;stroke:#1f77b4;" x="147.750686" xlink:href="#m3fa54e39d7" y="412.086583"/>
     <use style="fill:#1f77b4;stroke:#1f77b4;" x="343.575913" xlink:href="#m3fa54e39d7" y="146.963084"/>
     <use style="fill:#1f77b4;stroke:#1f77b4;" x="833.853743" xlink:href="#m3fa54e39d7" y="279.182696"/>
     <use style="fill:#1f77b4;stroke:#1f77b4;" x="589.347523" xlink:href="#m3fa54e39d7" y="71.043079"/>
     <use style="fill:#1f77b4;stroke:#1f77b4;" x="974.248296" xlink:href="#m3fa54e39d7" y="526.568536"/>
     <use style="fill:#1f77b4;stroke:#1f77b4;" x="131.87094" xlink:href="#m3fa54e39d7" y="441.541076"/>
     <use style="fill:#1f77b4;stroke:#1f77b4;" x="289.107392" xlink:href="#m3fa54e39d7" y="202.487121"/>
     <use style="fill:#1f77b4;stroke:#1f77b4;" x="731.176294" xlink:href="#m3fa54e39d7" y="157.316691"/>
     <use style="fill:#1f77b4;stroke:#1f77b4;" x="814.707404" xlink:href="#m3fa54e39d7" y="252.673712"/>
     <use style="fill:#1f77b4;stroke:#1f77b4;" x="638.369082" xlink:href="#m3fa54e39d7" y="90.096761"/>
     <use style="fill:#1f77b4;stroke:#1f77b4;" x="939.013404" xlink:href="#m3fa54e39d7" y="455.713969"/>
     <use style="fill:#1f77b4;stroke:#1f77b4;" x="262.898267" xlink:href="#m3fa54e39d7" y="234.207767"/>
     <use style="fill:#1f77b4;stroke:#1f77b4;" x="672.517104" xlink:href="#m3fa54e39d7" y="110.090023"/>
     <use style="fill:#1f77b4;stroke:#1f77b4;" x="902.041" xlink:href="#m3fa54e39d7" y="387.682799"/>
     <use style="fill:#1f77b4;stroke:#1f77b4;" x="388.704445" xlink:href="#m3fa54e39d7" y="111.595997"/>
     <use style="fill:#1f77b4;stroke:#1f77b4;" x="899.256087" xlink:href="#m3fa54e39d7" y="382.820417"/>
     <use style="fill:#1f77b4;stroke:#1f77b4;" x="397.696173" xlink:href="#m3fa54e39d7" y="105.700758"/>
     <use style="fill:#1f77b4;stroke:#1f77b4;" x="910.157819" xlink:href="#m3fa54e39d7" y="402.063936"/>
     <use style="fill:#1f77b4;stroke:#1f77b4;" x="362.110226" xlink:href="#m3fa54e39d7" y="131.271413"/>
     <use style="fill:#1f77b4;stroke:#1f77b4;" x="862.871457" xlink:href="#m3fa54e39d7" y="322.666292"/>
     <use style="fill:#1f77b4;stroke:#1f77b4;" x="508.935779" xlink:href="#m3fa54e39d7" y="64.41756"/>
     <use style="fill:#1f77b4;stroke:#1f77b4;" x="986.500492" xlink:href="#m3fa54e39d7" y="552.583522"/>
     <use style="fill:#1f77b4;stroke:#1f77b4;" x="83.762904" xlink:href="#m3fa54e39d7" y="538.058507"/>
     <use style="fill:#1f77b4;stroke:#1f77b4;" x="110.62319" xlink:href="#m3fa54e39d7" y="482.819151"/>
     <use style="fill:#1f77b4;stroke:#1f77b4;" x="212.774192" xlink:href="#m3fa54e39d7" y="303.926414"/>
     <use style="fill:#1f77b4;stroke:#1f77b4;" x="543.590371" xlink:href="#m3fa54e39d7" y="63.520608"/>
     <use style="fill:#1f77b4;stroke:#1f77b4;" x="988.159173" xlink:href="#m3fa54e39d7" y="556.159985"/>
     <use style="fill:#1f77b4;stroke:#1f77b4;" x="77.149154" xlink:href="#m3fa54e39d7" y="552.183859"/>
     <use style="fill:#1f77b4;stroke:#1f77b4;" x="84.501979" xlink:href="#m3fa54e39d7" y="536.492884"/>
     <use style="fill:#1f77b4;stroke:#1f77b4;" x="113.518407" xlink:href="#m3fa54e39d7" y="477.068868"/>
     <use style="fill:#1f77b4;stroke:#1f77b4;" x="223.407865" xlink:href="#m3fa54e39d7" y="288.142114"/>
     <use style="fill:#1f77b4;stroke:#1f77b4;" x="572.779381" xlink:href="#m3fa54e39d7" y="67.174892"/>
     <use style="fill:#1f77b4;stroke:#1f77b4;" x="981.401514" xlink:href="#m3fa54e39d7" y="541.670593"/>
     <use style="fill:#1f77b4;stroke:#1f77b4;" x="103.943565" xlink:href="#m3fa54e39d7" y="496.237111"/>
     <use style="fill:#1f77b4;stroke:#1f77b4;" x="187.961121" xlink:href="#m3fa54e39d7" y="342.839489"/>
     <use style="fill:#1f77b4;stroke:#1f77b4;" x="471.630632" xlink:href="#m3fa54e39d7" y="71.735511"/>
     <use style="fill:#1f77b4;stroke:#1f77b4;" x="972.96782" xlink:href="#m3fa54e39d7" y="523.890717"/>
     <use style="fill:#1f77b4;stroke:#1f77b4;" x="136.822878" xlink:href="#m3fa54e39d7" y="432.227938"/>
     <use style="fill:#1f77b4;stroke:#1f77b4;" x="306.32965" xlink:href="#m3fa54e39d7" y="183.413191"/>
     <use style="fill:#1f77b4;stroke:#1f77b4;" x="766.448629" xlink:href="#m3fa54e39d7" y="193.554701"/>
     <use style="fill:#1f77b4;stroke:#1f77b4;" x="747.69451" xlink:href="#m3fa54e39d7" y="173.554079"/>
     <use style="fill:#1f77b4;stroke:#1f77b4;" x="784.680525" xlink:href="#m3fa54e39d7" y="214.594082"/>
     <use style="fill:#1f77b4;stroke:#1f77b4;" x="708.787579" xlink:href="#m3fa54e39d7" y="137.369884"/>
     <use style="fill:#1f77b4;stroke:#1f77b4;" x="851.593903" xlink:href="#m3fa54e39d7" y="305.293237"/>
     <use style="fill:#1f77b4;stroke:#1f77b4;" x="541.062782" xlink:href="#m3fa54e39d7" y="63.393872"/>
     <use style="fill:#1f77b4;stroke:#1f77b4;" x="988.393539" xlink:href="#m3fa54e39d7" y="556.666378"/>
     <use style="fill:#1f77b4;stroke:#1f77b4;" x="76.212711" xlink:href="#m3fa54e39d7" y="554.200603"/>
     <use style="fill:#1f77b4;stroke:#1f77b4;" x="80.772529" xlink:href="#m3fa54e39d7" y="544.419577"/>
     <use style="fill:#1f77b4;stroke:#1f77b4;" x="98.860023" xlink:href="#m3fa54e39d7" y="506.590379"/>
     <use style="fill:#1f77b4;stroke:#1f77b4;" x="168.815411" xlink:href="#m3fa54e39d7" y="374.856304"/>
     <use style="fill:#1f77b4;stroke:#1f77b4;" x="412.423754" xlink:href="#m3fa54e39d7" y="96.871558"/>
     <use style="fill:#1f77b4;stroke:#1f77b4;" x="926.485157" xlink:href="#m3fa54e39d7" y="431.936657"/>
     <use style="fill:#1f77b4;stroke:#1f77b4;" x="306.8683" xlink:href="#m3fa54e39d7" y="182.839266"/>
     <use style="fill:#1f77b4;stroke:#1f77b4;" x="767.509956" xlink:href="#m3fa54e39d7" y="194.736336"/>
     <use style="fill:#1f77b4;stroke:#1f77b4;" x="745.509381" xlink:href="#m3fa54e39d7" y="171.331986"/>
     <use style="fill:#1f77b4;stroke:#1f77b4;" x="788.789716" xlink:href="#m3fa54e39d7" y="219.553277"/>
     <use style="fill:#1f77b4;stroke:#1f77b4;" x="699.616822" xlink:href="#m3fa54e39d7" y="129.884248"/>
     <use style="fill:#1f77b4;stroke:#1f77b4;" x="865.436664" xlink:href="#m3fa54e39d7" y="326.702017"/>
     <use style="fill:#1f77b4;stroke:#1f77b4;" x="501.472742" xlink:href="#m3fa54e39d7" y="65.354527"/>
     <use style="fill:#1f77b4;stroke:#1f77b4;" x="984.767812" xlink:href="#m3fa54e39d7" y="548.861404"/>
     <use style="fill:#1f77b4;stroke:#1f77b4;" x="90.646005" xlink:href="#m3fa54e39d7" y="523.577723"/>
     <use style="fill:#1f77b4;stroke:#1f77b4;" x="137.40168" xlink:href="#m3fa54e39d7" y="431.146958"/>
     <use style="fill:#1f77b4;stroke:#1f77b4;" x="308.328646" xlink:href="#m3fa54e39d7" y="181.290194"/>
     <use style="fill:#1f77b4;stroke:#1f77b4;" x="770.374568" xlink:href="#m3fa54e39d7" y="197.952281"/>
     <use style="fill:#1f77b4;stroke:#1f77b4;" x="739.562317" xlink:href="#m3fa54e39d7" y="165.398764"/>
     <use style="fill:#1f77b4;stroke:#1f77b4;" x="799.761685" xlink:href="#m3fa54e39d7" y="233.186406"/>
     <use style="fill:#1f77b4;stroke:#1f77b4;" x="674.405849" xlink:href="#m3fa54e39d7" y="111.356924"/>
     <use style="fill:#1f77b4;stroke:#1f77b4;" x="899.698191" xlink:href="#m3fa54e39d7" y="383.589866"/>
     <use style="fill:#1f77b4;stroke:#1f77b4;" x="396.273273" xlink:href="#m3fa54e39d7" y="106.608167"/>
     <use style="fill:#1f77b4;stroke:#1f77b4;" x="908.479798" xlink:href="#m3fa54e39d7" y="399.065301"/>
     <use style="fill:#1f77b4;stroke:#1f77b4;" x="367.655431" xlink:href="#m3fa54e39d7" y="126.892656"/>
     <use style="fill:#1f77b4;stroke:#1f77b4;" x="870.968844" xlink:href="#m3fa54e39d7" y="335.511552"/>
     <use style="fill:#1f77b4;stroke:#1f77b4;" x="485.181769" xlink:href="#m3fa54e39d7" y="68.315543"/>
     <use style="fill:#1f77b4;stroke:#1f77b4;" x="979.292173" xlink:href="#m3fa54e39d7" y="537.192123"/>
     <use style="fill:#1f77b4;stroke:#1f77b4;" x="112.225344" xlink:href="#m3fa54e39d7" y="479.632159"/>
     <use style="fill:#1f77b4;stroke:#1f77b4;" x="218.667717" xlink:href="#m3fa54e39d7" y="295.112139"/>
     <use style="fill:#1f77b4;stroke:#1f77b4;" x="559.890109" xlink:href="#m3fa54e39d7" y="65.064084"/>
     <use style="fill:#1f77b4;stroke:#1f77b4;" x="985.304911" xlink:href="#m3fa54e39d7" y="550.013674"/>
     <use style="fill:#1f77b4;stroke:#1f77b4;" x="88.515178" xlink:href="#m3fa54e39d7" y="528.036631"/>
     <use style="fill:#1f77b4;stroke:#1f77b4;" x="129.156076" xlink:href="#m3fa54e39d7" y="446.696191"/>
    </g>
   </g>
   <g id="matplotlib.axis_1">
    <g id="xtick_1">
     <g id="line2d_1">
      <defs>
       <path d="M 0 0 
L 0 3.5 
" id="m69f5802302" style="stroke:#000000;stroke-width:0.8;"/>
      </defs>
      <g>
       <use style="stroke:#000000;stroke-width:0.8;" x="74.689387" xlink:href="#m69f5802302" y="581.830125"/>
      </g>
     </g>
     <g id="text_1">
      <!-- 0.0 -->
      <defs>
       <path d="M 31.78125 66.40625 
Q 24.171875 66.40625 20.328125 58.90625 
Q 16.5 51.421875 16.5 36.375 
Q 16.5 21.390625 20.328125 13.890625 
Q 24.171875 6.390625 31.78125 6.390625 
Q 39.453125 6.390625 43.28125 13.890625 
Q 47.125 21.390625 47.125 36.375 
Q 47.125 51.421875 43.28125 58.90625 
Q 39.453125 66.40625 31.78125 66.40625 
z
M 31.78125 74.21875 
Q 44.046875 74.21875 50.515625 64.515625 
Q 56.984375 54.828125 56.984375 36.375 
Q 56.984375 17.96875 50.515625 8.265625 
Q 44.046875 -1.421875 31.78125 -1.421875 
Q 19.53125 -1.421875 13.0625 8.265625 
Q 6.59375 17.96875 6.59375 36.375 
Q 6.59375 54.828125 13.0625 64.515625 
Q 19.53125 74.21875 31.78125 74.21875 
z
" id="DejaVuSans-48"/>
       <path d="M 10.6875 12.40625 
L 21 12.40625 
L 21 0 
L 10.6875 0 
z
" id="DejaVuSans-46"/>
      </defs>
      <g transform="translate(66.737824 596.428562)scale(0.1 -0.1)">
       <use xlink:href="#DejaVuSans-48"/>
       <use x="63.623047" xlink:href="#DejaVuSans-46"/>
       <use x="95.410156" xlink:href="#DejaVuSans-48"/>
      </g>
     </g>
    </g>
    <g id="xtick_2">
     <g id="line2d_2">
      <g>
       <use style="stroke:#000000;stroke-width:0.8;" x="257.506415" xlink:href="#m69f5802302" y="581.830125"/>
      </g>
     </g>
     <g id="text_2">
      <!-- 0.2 -->
      <defs>
       <path d="M 19.1875 8.296875 
L 53.609375 8.296875 
L 53.609375 0 
L 7.328125 0 
L 7.328125 8.296875 
Q 12.9375 14.109375 22.625 23.890625 
Q 32.328125 33.6875 34.8125 36.53125 
Q 39.546875 41.84375 41.421875 45.53125 
Q 43.3125 49.21875 43.3125 52.78125 
Q 43.3125 58.59375 39.234375 62.25 
Q 35.15625 65.921875 28.609375 65.921875 
Q 23.96875 65.921875 18.8125 64.3125 
Q 13.671875 62.703125 7.8125 59.421875 
L 7.8125 69.390625 
Q 13.765625 71.78125 18.9375 73 
Q 24.125 74.21875 28.421875 74.21875 
Q 39.75 74.21875 46.484375 68.546875 
Q 53.21875 62.890625 53.21875 53.421875 
Q 53.21875 48.921875 51.53125 44.890625 
Q 49.859375 40.875 45.40625 35.40625 
Q 44.1875 33.984375 37.640625 27.21875 
Q 31.109375 20.453125 19.1875 8.296875 
z
" id="DejaVuSans-50"/>
      </defs>
      <g transform="translate(249.554853 596.428562)scale(0.1 -0.1)">
       <use xlink:href="#DejaVuSans-48"/>
       <use x="63.623047" xlink:href="#DejaVuSans-46"/>
       <use x="95.410156" xlink:href="#DejaVuSans-50"/>
      </g>
     </g>
    </g>
    <g id="xtick_3">
     <g id="line2d_3">
      <g>
       <use style="stroke:#000000;stroke-width:0.8;" x="440.323444" xlink:href="#m69f5802302" y="581.830125"/>
      </g>
     </g>
     <g id="text_3">
      <!-- 0.4 -->
      <defs>
       <path d="M 37.796875 64.3125 
L 12.890625 25.390625 
L 37.796875 25.390625 
z
M 35.203125 72.90625 
L 47.609375 72.90625 
L 47.609375 25.390625 
L 58.015625 25.390625 
L 58.015625 17.1875 
L 47.609375 17.1875 
L 47.609375 0 
L 37.796875 0 
L 37.796875 17.1875 
L 4.890625 17.1875 
L 4.890625 26.703125 
z
" id="DejaVuSans-52"/>
      </defs>
      <g transform="translate(432.371881 596.428562)scale(0.1 -0.1)">
       <use xlink:href="#DejaVuSans-48"/>
       <use x="63.623047" xlink:href="#DejaVuSans-46"/>
       <use x="95.410156" xlink:href="#DejaVuSans-52"/>
      </g>
     </g>
    </g>
    <g id="xtick_4">
     <g id="line2d_4">
      <g>
       <use style="stroke:#000000;stroke-width:0.8;" x="623.140472" xlink:href="#m69f5802302" y="581.830125"/>
      </g>
     </g>
     <g id="text_4">
      <!-- 0.6 -->
      <defs>
       <path d="M 33.015625 40.375 
Q 26.375 40.375 22.484375 35.828125 
Q 18.609375 31.296875 18.609375 23.390625 
Q 18.609375 15.53125 22.484375 10.953125 
Q 26.375 6.390625 33.015625 6.390625 
Q 39.65625 6.390625 43.53125 10.953125 
Q 47.40625 15.53125 47.40625 23.390625 
Q 47.40625 31.296875 43.53125 35.828125 
Q 39.65625 40.375 33.015625 40.375 
z
M 52.59375 71.296875 
L 52.59375 62.3125 
Q 48.875 64.0625 45.09375 64.984375 
Q 41.3125 65.921875 37.59375 65.921875 
Q 27.828125 65.921875 22.671875 59.328125 
Q 17.53125 52.734375 16.796875 39.40625 
Q 19.671875 43.65625 24.015625 45.921875 
Q 28.375 48.1875 33.59375 48.1875 
Q 44.578125 48.1875 50.953125 41.515625 
Q 57.328125 34.859375 57.328125 23.390625 
Q 57.328125 12.15625 50.6875 5.359375 
Q 44.046875 -1.421875 33.015625 -1.421875 
Q 20.359375 -1.421875 13.671875 8.265625 
Q 6.984375 17.96875 6.984375 36.375 
Q 6.984375 53.65625 15.1875 63.9375 
Q 23.390625 74.21875 37.203125 74.21875 
Q 40.921875 74.21875 44.703125 73.484375 
Q 48.484375 72.75 52.59375 71.296875 
z
" id="DejaVuSans-54"/>
      </defs>
      <g transform="translate(615.18891 596.428562)scale(0.1 -0.1)">
       <use xlink:href="#DejaVuSans-48"/>
       <use x="63.623047" xlink:href="#DejaVuSans-46"/>
       <use x="95.410156" xlink:href="#DejaVuSans-54"/>
      </g>
     </g>
    </g>
    <g id="xtick_5">
     <g id="line2d_5">
      <g>
       <use style="stroke:#000000;stroke-width:0.8;" x="805.957501" xlink:href="#m69f5802302" y="581.830125"/>
      </g>
     </g>
     <g id="text_5">
      <!-- 0.8 -->
      <defs>
       <path d="M 31.78125 34.625 
Q 24.75 34.625 20.71875 30.859375 
Q 16.703125 27.09375 16.703125 20.515625 
Q 16.703125 13.921875 20.71875 10.15625 
Q 24.75 6.390625 31.78125 6.390625 
Q 38.8125 6.390625 42.859375 10.171875 
Q 46.921875 13.96875 46.921875 20.515625 
Q 46.921875 27.09375 42.890625 30.859375 
Q 38.875 34.625 31.78125 34.625 
z
M 21.921875 38.8125 
Q 15.578125 40.375 12.03125 44.71875 
Q 8.5 49.078125 8.5 55.328125 
Q 8.5 64.0625 14.71875 69.140625 
Q 20.953125 74.21875 31.78125 74.21875 
Q 42.671875 74.21875 48.875 69.140625 
Q 55.078125 64.0625 55.078125 55.328125 
Q 55.078125 49.078125 51.53125 44.71875 
Q 48 40.375 41.703125 38.8125 
Q 48.828125 37.15625 52.796875 32.3125 
Q 56.78125 27.484375 56.78125 20.515625 
Q 56.78125 9.90625 50.3125 4.234375 
Q 43.84375 -1.421875 31.78125 -1.421875 
Q 19.734375 -1.421875 13.25 4.234375 
Q 6.78125 9.90625 6.78125 20.515625 
Q 6.78125 27.484375 10.78125 32.3125 
Q 14.796875 37.15625 21.921875 38.8125 
z
M 18.3125 54.390625 
Q 18.3125 48.734375 21.84375 45.5625 
Q 25.390625 42.390625 31.78125 42.390625 
Q 38.140625 42.390625 41.71875 45.5625 
Q 45.3125 48.734375 45.3125 54.390625 
Q 45.3125 60.0625 41.71875 63.234375 
Q 38.140625 66.40625 31.78125 66.40625 
Q 25.390625 66.40625 21.84375 63.234375 
Q 18.3125 60.0625 18.3125 54.390625 
z
" id="DejaVuSans-56"/>
      </defs>
      <g transform="translate(798.005938 596.428562)scale(0.1 -0.1)">
       <use xlink:href="#DejaVuSans-48"/>
       <use x="63.623047" xlink:href="#DejaVuSans-46"/>
       <use x="95.410156" xlink:href="#DejaVuSans-56"/>
      </g>
     </g>
    </g>
    <g id="xtick_6">
     <g id="line2d_6">
      <g>
       <use style="stroke:#000000;stroke-width:0.8;" x="988.774529" xlink:href="#m69f5802302" y="581.830125"/>
      </g>
     </g>
     <g id="text_6">
      <!-- 1.0 -->
      <defs>
       <path d="M 12.40625 8.296875 
L 28.515625 8.296875 
L 28.515625 63.921875 
L 10.984375 60.40625 
L 10.984375 69.390625 
L 28.421875 72.90625 
L 38.28125 72.90625 
L 38.28125 8.296875 
L 54.390625 8.296875 
L 54.390625 0 
L 12.40625 0 
z
" id="DejaVuSans-49"/>
      </defs>
      <g transform="translate(980.822966 596.428562)scale(0.1 -0.1)">
       <use xlink:href="#DejaVuSans-49"/>
       <use x="63.623047" xlink:href="#DejaVuSans-46"/>
       <use x="95.410156" xlink:href="#DejaVuSans-48"/>
      </g>
     </g>
    </g>
   </g>
   <g id="matplotlib.axis_2">
    <g id="ytick_1">
     <g id="line2d_7">
      <defs>
       <path d="M 0 0 
L -3.5 0 
" id="m07dda05263" style="stroke:#000000;stroke-width:0.8;"/>
      </defs>
      <g>
       <use style="stroke:#000000;stroke-width:0.8;" x="30.103125" xlink:href="#m07dda05263" y="557.490133"/>
      </g>
     </g>
     <g id="text_7">
      <!-- 0.0 -->
      <g transform="translate(7.2 561.289352)scale(0.1 -0.1)">
       <use xlink:href="#DejaVuSans-48"/>
       <use x="63.623047" xlink:href="#DejaVuSans-46"/>
       <use x="95.410156" xlink:href="#DejaVuSans-48"/>
      </g>
     </g>
    </g>
    <g id="ytick_2">
     <g id="line2d_8">
      <g>
       <use style="stroke:#000000;stroke-width:0.8;" x="30.103125" xlink:href="#m07dda05263" y="458.629676"/>
      </g>
     </g>
     <g id="text_8">
      <!-- 0.2 -->
      <g transform="translate(7.2 462.428895)scale(0.1 -0.1)">
       <use xlink:href="#DejaVuSans-48"/>
       <use x="63.623047" xlink:href="#DejaVuSans-46"/>
       <use x="95.410156" xlink:href="#DejaVuSans-50"/>
      </g>
     </g>
    </g>
    <g id="ytick_3">
     <g id="line2d_9">
      <g>
       <use style="stroke:#000000;stroke-width:0.8;" x="30.103125" xlink:href="#m07dda05263" y="359.769219"/>
      </g>
     </g>
     <g id="text_9">
      <!-- 0.4 -->
      <g transform="translate(7.2 363.568438)scale(0.1 -0.1)">
       <use xlink:href="#DejaVuSans-48"/>
       <use x="63.623047" xlink:href="#DejaVuSans-46"/>
       <use x="95.410156" xlink:href="#DejaVuSans-52"/>
      </g>
     </g>
    </g>
    <g id="ytick_4">
     <g id="line2d_10">
      <g>
       <use style="stroke:#000000;stroke-width:0.8;" x="30.103125" xlink:href="#m07dda05263" y="260.908762"/>
      </g>
     </g>
     <g id="text_10">
      <!-- 0.6 -->
      <g transform="translate(7.2 264.707981)scale(0.1 -0.1)">
       <use xlink:href="#DejaVuSans-48"/>
       <use x="63.623047" xlink:href="#DejaVuSans-46"/>
       <use x="95.410156" xlink:href="#DejaVuSans-54"/>
      </g>
     </g>
    </g>
    <g id="ytick_5">
     <g id="line2d_11">
      <g>
       <use style="stroke:#000000;stroke-width:0.8;" x="30.103125" xlink:href="#m07dda05263" y="162.048305"/>
      </g>
     </g>
     <g id="text_11">
      <!-- 0.8 -->
      <g transform="translate(7.2 165.847523)scale(0.1 -0.1)">
       <use xlink:href="#DejaVuSans-48"/>
       <use x="63.623047" xlink:href="#DejaVuSans-46"/>
       <use x="95.410156" xlink:href="#DejaVuSans-56"/>
      </g>
     </g>
    </g>
    <g id="ytick_6">
     <g id="line2d_12">
      <g>
       <use style="stroke:#000000;stroke-width:0.8;" x="30.103125" xlink:href="#m07dda05263" y="63.187847"/>
      </g>
     </g>
     <g id="text_12">
      <!-- 1.0 -->
      <g transform="translate(7.2 66.987066)scale(0.1 -0.1)">
       <use xlink:href="#DejaVuSans-49"/>
       <use x="63.623047" xlink:href="#DejaVuSans-46"/>
       <use x="95.410156" xlink:href="#DejaVuSans-48"/>
      </g>
     </g>
    </g>
   </g>
   <g id="patch_3">
    <path d="M 30.103125 581.830125 
L 30.103125 38.230125 
" style="fill:none;stroke:#000000;stroke-linecap:square;stroke-linejoin:miter;stroke-width:0.8;"/>
   </g>
   <g id="patch_4">
    <path d="M 1034.503125 581.830125 
L 1034.503125 38.230125 
" style="fill:none;stroke:#000000;stroke-linecap:square;stroke-linejoin:miter;stroke-width:0.8;"/>
   </g>
   <g id="patch_5">
    <path d="M 30.103125 581.830125 
L 1034.503125 581.830125 
" style="fill:none;stroke:#000000;stroke-linecap:square;stroke-linejoin:miter;stroke-width:0.8;"/>
   </g>
   <g id="patch_6">
    <path d="M 30.103125 38.230125 
L 1034.503125 38.230125 
" style="fill:none;stroke:#000000;stroke-linecap:square;stroke-linejoin:miter;stroke-width:0.8;"/>
   </g>
   <g id="text_13">
    <!-- 2D $Poincar\'e$ plot for  -->
    <defs>
     <path d="M 19.671875 64.796875 
L 19.671875 8.109375 
L 31.59375 8.109375 
Q 46.6875 8.109375 53.6875 14.9375 
Q 60.6875 21.78125 60.6875 36.53125 
Q 60.6875 51.171875 53.6875 57.984375 
Q 46.6875 64.796875 31.59375 64.796875 
z
M 9.8125 72.90625 
L 30.078125 72.90625 
Q 51.265625 72.90625 61.171875 64.09375 
Q 71.09375 55.28125 71.09375 36.53125 
Q 71.09375 17.671875 61.125 8.828125 
Q 51.171875 0 30.078125 0 
L 9.8125 0 
z
" id="DejaVuSans-68"/>
     <path id="DejaVuSans-32"/>
     <path d="M 16.890625 72.90625 
L 39.703125 72.90625 
Q 49.65625 72.90625 54.875 68.265625 
Q 60.109375 63.625 60.109375 54.6875 
Q 60.109375 42.671875 52.390625 35.984375 
Q 44.671875 29.296875 30.71875 29.296875 
L 18.3125 29.296875 
L 12.59375 0 
L 2.6875 0 
z
M 25.203125 64.796875 
L 19.921875 37.40625 
L 32.328125 37.40625 
Q 40.71875 37.40625 45.203125 41.703125 
Q 49.703125 46 49.703125 54 
Q 49.703125 59.125 46.65625 61.953125 
Q 43.609375 64.796875 38.09375 64.796875 
z
" id="DejaVuSans-Oblique-80"/>
     <path d="M 25.390625 -1.421875 
Q 15.765625 -1.421875 10.171875 4.515625 
Q 4.59375 10.453125 4.59375 20.703125 
Q 4.59375 26.65625 6.515625 32.828125 
Q 8.453125 39.015625 11.53125 43.21875 
Q 16.359375 49.75 22.3125 52.875 
Q 28.265625 56 35.796875 56 
Q 45.125 56 50.859375 50.1875 
Q 56.59375 44.390625 56.59375 35.015625 
Q 56.59375 28.515625 54.6875 22.0625 
Q 52.78125 15.625 49.703125 11.375 
Q 44.921875 4.828125 38.96875 1.703125 
Q 33.015625 -1.421875 25.390625 -1.421875 
z
M 13.921875 21 
Q 13.921875 13.578125 17.015625 9.890625 
Q 20.125 6.203125 26.421875 6.203125 
Q 35.453125 6.203125 41.375 14.078125 
Q 47.3125 21.96875 47.3125 34.078125 
Q 47.3125 41.15625 44.140625 44.765625 
Q 40.96875 48.390625 34.8125 48.390625 
Q 29.734375 48.390625 25.78125 46.015625 
Q 21.828125 43.65625 18.703125 38.8125 
Q 16.40625 35.203125 15.15625 30.5625 
Q 13.921875 25.921875 13.921875 21 
z
" id="DejaVuSans-Oblique-111"/>
     <path d="M 18.3125 75.984375 
L 27.296875 75.984375 
L 25.09375 64.59375 
L 16.109375 64.59375 
z
M 14.203125 54.6875 
L 23.1875 54.6875 
L 12.5 0 
L 3.515625 0 
z
" id="DejaVuSans-Oblique-105"/>
     <path d="M 55.71875 33.015625 
L 49.3125 0 
L 40.28125 0 
L 46.6875 32.671875 
Q 47.125 34.96875 47.359375 36.71875 
Q 47.609375 38.484375 47.609375 39.5 
Q 47.609375 43.609375 45.015625 45.890625 
Q 42.4375 48.1875 37.796875 48.1875 
Q 30.5625 48.1875 25.34375 43.375 
Q 20.125 38.578125 18.5 30.328125 
L 12.5 0 
L 3.515625 0 
L 14.109375 54.6875 
L 23.09375 54.6875 
L 21.296875 46.09375 
Q 25.046875 50.828125 30.3125 53.40625 
Q 35.59375 56 41.40625 56 
Q 48.640625 56 52.609375 52.09375 
Q 56.59375 48.1875 56.59375 41.109375 
Q 56.59375 39.359375 56.375 37.359375 
Q 56.15625 35.359375 55.71875 33.015625 
z
" id="DejaVuSans-Oblique-110"/>
     <path d="M 53.609375 52.59375 
L 51.8125 43.703125 
Q 48.578125 46.046875 44.9375 47.21875 
Q 41.3125 48.390625 37.40625 48.390625 
Q 33.109375 48.390625 29.21875 46.875 
Q 25.34375 45.359375 22.703125 42.578125 
Q 18.5 38.328125 16.203125 32.609375 
Q 13.921875 26.90625 13.921875 20.796875 
Q 13.921875 13.421875 17.609375 9.8125 
Q 21.296875 6.203125 28.8125 6.203125 
Q 32.515625 6.203125 36.6875 7.328125 
Q 40.875 8.453125 45.40625 10.6875 
L 43.703125 1.8125 
Q 39.796875 0.203125 35.671875 -0.609375 
Q 31.546875 -1.421875 27.203125 -1.421875 
Q 16.3125 -1.421875 10.453125 4.015625 
Q 4.59375 9.46875 4.59375 19.578125 
Q 4.59375 28.078125 7.640625 35.234375 
Q 10.6875 42.390625 16.703125 48.09375 
Q 20.796875 52 26.3125 54 
Q 31.84375 56 38.375 56 
Q 42.1875 56 45.9375 55.140625 
Q 49.703125 54.296875 53.609375 52.59375 
z
" id="DejaVuSans-Oblique-99"/>
     <path d="M 53.71875 31.203125 
L 47.609375 0 
L 38.625 0 
L 40.28125 8.296875 
Q 36.328125 3.421875 31.265625 1 
Q 26.21875 -1.421875 20.015625 -1.421875 
Q 13.03125 -1.421875 8.5625 2.84375 
Q 4.109375 7.125 4.109375 13.8125 
Q 4.109375 23.390625 11.75 28.953125 
Q 19.390625 34.515625 32.8125 34.515625 
L 45.3125 34.515625 
L 45.796875 36.921875 
Q 45.90625 37.3125 45.953125 37.765625 
Q 46 38.234375 46 39.203125 
Q 46 43.5625 42.453125 45.96875 
Q 38.921875 48.390625 32.515625 48.390625 
Q 28.125 48.390625 23.5 47.265625 
Q 18.890625 46.140625 14.015625 43.890625 
L 15.578125 52.203125 
Q 20.65625 54.109375 25.515625 55.046875 
Q 30.375 56 34.90625 56 
Q 44.578125 56 49.625 51.796875 
Q 54.6875 47.609375 54.6875 39.59375 
Q 54.6875 37.984375 54.4375 35.8125 
Q 54.203125 33.640625 53.71875 31.203125 
z
M 44 27.484375 
L 35.015625 27.484375 
Q 23.96875 27.484375 18.671875 24.53125 
Q 13.375 21.578125 13.375 15.375 
Q 13.375 11.078125 16.078125 8.640625 
Q 18.796875 6.203125 23.578125 6.203125 
Q 30.90625 6.203125 36.375 11.453125 
Q 41.84375 16.703125 43.609375 25.484375 
z
" id="DejaVuSans-Oblique-97"/>
     <path d="M 44.578125 46.390625 
Q 43.21875 47.125 41.453125 47.515625 
Q 39.703125 47.90625 37.703125 47.90625 
Q 30.515625 47.90625 25.140625 42.453125 
Q 19.78125 37.015625 18.015625 27.875 
L 12.5 0 
L 3.515625 0 
L 14.203125 54.6875 
L 23.1875 54.6875 
L 21.484375 46.1875 
Q 25.046875 50.921875 30 53.453125 
Q 34.96875 56 40.578125 56 
Q 42.046875 56 43.453125 55.828125 
Q 44.875 55.671875 46.296875 55.28125 
z
" id="DejaVuSans-Oblique-114"/>
     <path d="M -18.3125 79.984375 
L -8.59375 79.984375 
L -24.515625 61.625 
L -31.984375 61.625 
z
M -25 56 
z
" id="DejaVuSans-769"/>
     <path d="M 48.09375 32.234375 
Q 48.25 33.015625 48.3125 33.84375 
Q 48.390625 34.671875 48.390625 35.5 
Q 48.390625 41.453125 44.890625 44.921875 
Q 41.40625 48.390625 35.40625 48.390625 
Q 28.71875 48.390625 23.578125 44.15625 
Q 18.453125 39.9375 15.828125 32.171875 
z
M 55.90625 25.203125 
L 14.109375 25.203125 
Q 13.8125 23.34375 13.71875 22.265625 
Q 13.625 21.1875 13.625 20.40625 
Q 13.625 13.625 17.796875 9.90625 
Q 21.96875 6.203125 29.59375 6.203125 
Q 35.453125 6.203125 40.671875 7.515625 
Q 45.90625 8.84375 50.390625 11.375 
L 48.6875 2.484375 
Q 43.84375 0.53125 38.6875 -0.4375 
Q 33.546875 -1.421875 28.21875 -1.421875 
Q 16.84375 -1.421875 10.71875 4.015625 
Q 4.59375 9.46875 4.59375 19.484375 
Q 4.59375 28.03125 7.640625 35.375 
Q 10.6875 42.71875 16.609375 48.484375 
Q 20.40625 52.09375 25.65625 54.046875 
Q 30.90625 56 36.8125 56 
Q 46.09375 56 51.578125 50.4375 
Q 57.078125 44.875 57.078125 35.5 
Q 57.078125 33.25 56.78125 30.6875 
Q 56.5 28.125 55.90625 25.203125 
z
" id="DejaVuSans-Oblique-101"/>
     <path d="M 18.109375 8.203125 
L 18.109375 -20.796875 
L 9.078125 -20.796875 
L 9.078125 54.6875 
L 18.109375 54.6875 
L 18.109375 46.390625 
Q 20.953125 51.265625 25.265625 53.625 
Q 29.59375 56 35.59375 56 
Q 45.5625 56 51.78125 48.09375 
Q 58.015625 40.1875 58.015625 27.296875 
Q 58.015625 14.40625 51.78125 6.484375 
Q 45.5625 -1.421875 35.59375 -1.421875 
Q 29.59375 -1.421875 25.265625 0.953125 
Q 20.953125 3.328125 18.109375 8.203125 
z
M 48.6875 27.296875 
Q 48.6875 37.203125 44.609375 42.84375 
Q 40.53125 48.484375 33.40625 48.484375 
Q 26.265625 48.484375 22.1875 42.84375 
Q 18.109375 37.203125 18.109375 27.296875 
Q 18.109375 17.390625 22.1875 11.75 
Q 26.265625 6.109375 33.40625 6.109375 
Q 40.53125 6.109375 44.609375 11.75 
Q 48.6875 17.390625 48.6875 27.296875 
z
" id="DejaVuSans-112"/>
     <path d="M 9.421875 75.984375 
L 18.40625 75.984375 
L 18.40625 0 
L 9.421875 0 
z
" id="DejaVuSans-108"/>
     <path d="M 30.609375 48.390625 
Q 23.390625 48.390625 19.1875 42.75 
Q 14.984375 37.109375 14.984375 27.296875 
Q 14.984375 17.484375 19.15625 11.84375 
Q 23.34375 6.203125 30.609375 6.203125 
Q 37.796875 6.203125 41.984375 11.859375 
Q 46.1875 17.53125 46.1875 27.296875 
Q 46.1875 37.015625 41.984375 42.703125 
Q 37.796875 48.390625 30.609375 48.390625 
z
M 30.609375 56 
Q 42.328125 56 49.015625 48.375 
Q 55.71875 40.765625 55.71875 27.296875 
Q 55.71875 13.875 49.015625 6.21875 
Q 42.328125 -1.421875 30.609375 -1.421875 
Q 18.84375 -1.421875 12.171875 6.21875 
Q 5.515625 13.875 5.515625 27.296875 
Q 5.515625 40.765625 12.171875 48.375 
Q 18.84375 56 30.609375 56 
z
" id="DejaVuSans-111"/>
     <path d="M 18.3125 70.21875 
L 18.3125 54.6875 
L 36.8125 54.6875 
L 36.8125 47.703125 
L 18.3125 47.703125 
L 18.3125 18.015625 
Q 18.3125 11.328125 20.140625 9.421875 
Q 21.96875 7.515625 27.59375 7.515625 
L 36.8125 7.515625 
L 36.8125 0 
L 27.59375 0 
Q 17.1875 0 13.234375 3.875 
Q 9.28125 7.765625 9.28125 18.015625 
L 9.28125 47.703125 
L 2.6875 47.703125 
L 2.6875 54.6875 
L 9.28125 54.6875 
L 9.28125 70.21875 
z
" id="DejaVuSans-116"/>
     <path d="M 37.109375 75.984375 
L 37.109375 68.5 
L 28.515625 68.5 
Q 23.6875 68.5 21.796875 66.546875 
Q 19.921875 64.59375 19.921875 59.515625 
L 19.921875 54.6875 
L 34.71875 54.6875 
L 34.71875 47.703125 
L 19.921875 47.703125 
L 19.921875 0 
L 10.890625 0 
L 10.890625 47.703125 
L 2.296875 47.703125 
L 2.296875 54.6875 
L 10.890625 54.6875 
L 10.890625 58.5 
Q 10.890625 67.625 15.140625 71.796875 
Q 19.390625 75.984375 28.609375 75.984375 
z
" id="DejaVuSans-102"/>
     <path d="M 41.109375 46.296875 
Q 39.59375 47.171875 37.8125 47.578125 
Q 36.03125 48 33.890625 48 
Q 26.265625 48 22.1875 43.046875 
Q 18.109375 38.09375 18.109375 28.8125 
L 18.109375 0 
L 9.078125 0 
L 9.078125 54.6875 
L 18.109375 54.6875 
L 18.109375 46.1875 
Q 20.953125 51.171875 25.484375 53.578125 
Q 30.03125 56 36.53125 56 
Q 37.453125 56 38.578125 55.875 
Q 39.703125 55.765625 41.0625 55.515625 
z
" id="DejaVuSans-114"/>
    </defs>
    <g transform="translate(470.563125 18.384375)scale(0.12 -0.12)">
     <use transform="translate(0 0.515625)" xlink:href="#DejaVuSans-50"/>
     <use transform="translate(63.623047 0.515625)" xlink:href="#DejaVuSans-68"/>
     <use transform="translate(140.625 0.515625)" xlink:href="#DejaVuSans-32"/>
     <use transform="translate(172.412109 0.515625)" xlink:href="#DejaVuSans-Oblique-80"/>
     <use transform="translate(232.714844 0.515625)" xlink:href="#DejaVuSans-Oblique-111"/>
     <use transform="translate(293.896484 0.515625)" xlink:href="#DejaVuSans-Oblique-105"/>
     <use transform="translate(321.679688 0.515625)" xlink:href="#DejaVuSans-Oblique-110"/>
     <use transform="translate(385.058594 0.515625)" xlink:href="#DejaVuSans-Oblique-99"/>
     <use transform="translate(440.039062 0.515625)" xlink:href="#DejaVuSans-Oblique-97"/>
     <use transform="translate(501.318359 0.515625)" xlink:href="#DejaVuSans-Oblique-114"/>
     <use transform="translate(595.537109 13.015625)" xlink:href="#DejaVuSans-769"/>
     <use transform="translate(542.431641 0.515625)" xlink:href="#DejaVuSans-Oblique-101"/>
     <use transform="translate(603.955078 0.515625)" xlink:href="#DejaVuSans-32"/>
     <use transform="translate(635.742188 0.515625)" xlink:href="#DejaVuSans-112"/>
     <use transform="translate(699.21875 0.515625)" xlink:href="#DejaVuSans-108"/>
     <use transform="translate(727.001953 0.515625)" xlink:href="#DejaVuSans-111"/>
     <use transform="translate(788.183594 0.515625)" xlink:href="#DejaVuSans-116"/>
     <use transform="translate(827.392578 0.515625)" xlink:href="#DejaVuSans-32"/>
     <use transform="translate(859.179688 0.515625)" xlink:href="#DejaVuSans-102"/>
     <use transform="translate(894.384766 0.515625)" xlink:href="#DejaVuSans-111"/>
     <use transform="translate(955.566406 0.515625)" xlink:href="#DejaVuSans-114"/>
     <use transform="translate(996.679688 0.515625)" xlink:href="#DejaVuSans-32"/>
    </g>
    <!-- $f(x) = rx(1-x)$ : $ r\leftarrow 4 $ -->
    <defs>
     <path d="M 47.796875 75.984375 
L 46.390625 68.5 
L 37.796875 68.5 
Q 32.90625 68.5 30.6875 66.578125 
Q 28.46875 64.65625 27.390625 59.515625 
L 26.421875 54.6875 
L 41.21875 54.6875 
L 39.890625 47.703125 
L 25.09375 47.703125 
L 15.828125 0 
L 6.78125 0 
L 16.109375 47.703125 
L 7.515625 47.703125 
L 8.796875 54.6875 
L 17.390625 54.6875 
L 18.109375 58.5 
Q 19.96875 68.171875 24.625 72.078125 
Q 29.296875 75.984375 39.3125 75.984375 
z
" id="DejaVuSans-Oblique-102"/>
     <path d="M 31 75.875 
Q 24.46875 64.65625 21.28125 53.65625 
Q 18.109375 42.671875 18.109375 31.390625 
Q 18.109375 20.125 21.3125 9.0625 
Q 24.515625 -2 31 -13.1875 
L 23.1875 -13.1875 
Q 15.875 -1.703125 12.234375 9.375 
Q 8.59375 20.453125 8.59375 31.390625 
Q 8.59375 42.28125 12.203125 53.3125 
Q 15.828125 64.359375 23.1875 75.875 
z
" id="DejaVuSans-40"/>
     <path d="M 60.015625 54.6875 
L 34.90625 27.875 
L 50.296875 0 
L 39.984375 0 
L 28.421875 21.6875 
L 8.296875 0 
L -2.59375 0 
L 24.3125 28.8125 
L 10.015625 54.6875 
L 20.3125 54.6875 
L 30.8125 34.90625 
L 49.125 54.6875 
z
" id="DejaVuSans-Oblique-120"/>
     <path d="M 8.015625 75.875 
L 15.828125 75.875 
Q 23.140625 64.359375 26.78125 53.3125 
Q 30.421875 42.28125 30.421875 31.390625 
Q 30.421875 20.453125 26.78125 9.375 
Q 23.140625 -1.703125 15.828125 -13.1875 
L 8.015625 -13.1875 
Q 14.5 -2 17.703125 9.0625 
Q 20.90625 20.125 20.90625 31.390625 
Q 20.90625 42.671875 17.703125 53.65625 
Q 14.5 64.65625 8.015625 75.875 
z
" id="DejaVuSans-41"/>
     <path d="M 10.59375 45.40625 
L 73.1875 45.40625 
L 73.1875 37.203125 
L 10.59375 37.203125 
z
M 10.59375 25.484375 
L 73.1875 25.484375 
L 73.1875 17.1875 
L 10.59375 17.1875 
z
" id="DejaVuSans-61"/>
     <path d="M 10.59375 35.5 
L 73.1875 35.5 
L 73.1875 27.203125 
L 10.59375 27.203125 
z
" id="DejaVuSans-8722"/>
     <path d="M 11.71875 12.40625 
L 22.015625 12.40625 
L 22.015625 0 
L 11.71875 0 
z
M 11.71875 51.703125 
L 22.015625 51.703125 
L 22.015625 39.3125 
L 11.71875 39.3125 
z
" id="DejaVuSans-58"/>
     <path d="M 4.890625 29.15625 
L 4.890625 33.546875 
L 24.078125 52.734375 
L 29.9375 46.875 
L 18.5625 35.5 
L 78.078125 35.5 
L 78.078125 27.203125 
L 18.5625 27.203125 
L 29.9375 15.828125 
L 24.078125 9.96875 
z
" id="DejaVuSans-8592"/>
    </defs>
    <g transform="translate(469.663125 31.846125)scale(0.12 -0.12)">
     <use transform="translate(0 0.015625)" xlink:href="#DejaVuSans-Oblique-102"/>
     <use transform="translate(35.205078 0.015625)" xlink:href="#DejaVuSans-40"/>
     <use transform="translate(74.21875 0.015625)" xlink:href="#DejaVuSans-Oblique-120"/>
     <use transform="translate(133.398438 0.015625)" xlink:href="#DejaVuSans-41"/>
     <use transform="translate(191.894531 0.015625)" xlink:href="#DejaVuSans-61"/>
     <use transform="translate(295.166016 0.015625)" xlink:href="#DejaVuSans-Oblique-114"/>
     <use transform="translate(336.279297 0.015625)" xlink:href="#DejaVuSans-Oblique-120"/>
     <use transform="translate(395.458984 0.015625)" xlink:href="#DejaVuSans-40"/>
     <use transform="translate(434.472656 0.015625)" xlink:href="#DejaVuSans-49"/>
     <use transform="translate(517.578125 0.015625)" xlink:href="#DejaVuSans-8722"/>
     <use transform="translate(620.849609 0.015625)" xlink:href="#DejaVuSans-Oblique-120"/>
     <use transform="translate(680.029297 0.015625)" xlink:href="#DejaVuSans-41"/>
     <use transform="translate(719.042969 0.015625)" xlink:href="#DejaVuSans-32"/>
     <use transform="translate(750.830078 0.015625)" xlink:href="#DejaVuSans-58"/>
     <use transform="translate(784.521484 0.015625)" xlink:href="#DejaVuSans-32"/>
     <use transform="translate(816.308594 0.015625)" xlink:href="#DejaVuSans-Oblique-114"/>
     <use transform="translate(876.904297 0.015625)" xlink:href="#DejaVuSans-8592"/>
     <use transform="translate(980.175781 0.015625)" xlink:href="#DejaVuSans-52"/>
    </g>
   </g>
  </g>
 </g>
 <defs>
  <clipPath id="p4c53452ddd">
   <rect height="543.6" width="1004.4" x="30.103125" y="38.230125"/>
  </clipPath>
 </defs>
</svg>
