<?xml version="1.0" encoding="utf-8" standalone="no"?>
<!DOCTYPE svg PUBLIC "-//W3C//DTD SVG 1.1//EN"
  "http://www.w3.org/Graphics/SVG/1.1/DTD/svg11.dtd">
<!-- Created with matplotlib (https://matplotlib.org/) -->
<svg height="535.438125pt" version="1.1" viewBox="0 0 491.654687 535.438125" width="491.654687pt" xmlns="http://www.w3.org/2000/svg" xmlns:xlink="http://www.w3.org/1999/xlink">
 <defs>
  <style type="text/css">
*{stroke-linecap:butt;stroke-linejoin:round;}
  </style>
 </defs>
 <g id="figure_1">
  <g id="patch_1">
   <path d="M 0 535.438125 
L 491.654687 535.438125 
L 491.654687 0 
L 0 0 
z
" style="fill:none;"/>
  </g>
  <g id="axes_1">
   <g id="patch_2">
    <path d="M 30.103125 511.56 
L 476.503125 511.56 
L 476.503125 22.32 
L 30.103125 22.32 
z
" style="fill:#ffffff;"/>
   </g>
   <g id="matplotlib.axis_1">
    <g id="xtick_1">
     <g id="line2d_1">
      <defs>
       <path d="M 0 0 
L 0 3.5 
" id="m36dc05b625" style="stroke:#000000;stroke-width:0.8;"/>
      </defs>
      <g>
       <use style="stroke:#000000;stroke-width:0.8;" x="30.103125" xlink:href="#m36dc05b625" y="511.56"/>
      </g>
     </g>
     <g id="text_1">
      <!-- 0.0 -->
      <defs>
       <path d="M 31.78125 66.40625 
Q 24.171875 66.40625 20.328125 58.90625 
Q 16.5 51.421875 16.5 36.375 
Q 16.5 21.390625 20.328125 13.890625 
Q 24.171875 6.390625 31.78125 6.390625 
Q 39.453125 6.390625 43.28125 13.890625 
Q 47.125 21.390625 47.125 36.375 
Q 47.125 51.421875 43.28125 58.90625 
Q 39.453125 66.40625 31.78125 66.40625 
z
M 31.78125 74.21875 
Q 44.046875 74.21875 50.515625 64.515625 
Q 56.984375 54.828125 56.984375 36.375 
Q 56.984375 17.96875 50.515625 8.265625 
Q 44.046875 -1.421875 31.78125 -1.421875 
Q 19.53125 -1.421875 13.0625 8.265625 
Q 6.59375 17.96875 6.59375 36.375 
Q 6.59375 54.828125 13.0625 64.515625 
Q 19.53125 74.21875 31.78125 74.21875 
z
" id="DejaVuSans-48"/>
       <path d="M 10.6875 12.40625 
L 21 12.40625 
L 21 0 
L 10.6875 0 
z
" id="DejaVuSans-46"/>
      </defs>
      <g transform="translate(22.151563 526.158437)scale(0.1 -0.1)">
       <use xlink:href="#DejaVuSans-48"/>
       <use x="63.623047" xlink:href="#DejaVuSans-46"/>
       <use x="95.410156" xlink:href="#DejaVuSans-48"/>
      </g>
     </g>
    </g>
    <g id="xtick_2">
     <g id="line2d_2">
      <g>
       <use style="stroke:#000000;stroke-width:0.8;" x="119.383125" xlink:href="#m36dc05b625" y="511.56"/>
      </g>
     </g>
     <g id="text_2">
      <!-- 0.2 -->
      <defs>
       <path d="M 19.1875 8.296875 
L 53.609375 8.296875 
L 53.609375 0 
L 7.328125 0 
L 7.328125 8.296875 
Q 12.9375 14.109375 22.625 23.890625 
Q 32.328125 33.6875 34.8125 36.53125 
Q 39.546875 41.84375 41.421875 45.53125 
Q 43.3125 49.21875 43.3125 52.78125 
Q 43.3125 58.59375 39.234375 62.25 
Q 35.15625 65.921875 28.609375 65.921875 
Q 23.96875 65.921875 18.8125 64.3125 
Q 13.671875 62.703125 7.8125 59.421875 
L 7.8125 69.390625 
Q 13.765625 71.78125 18.9375 73 
Q 24.125 74.21875 28.421875 74.21875 
Q 39.75 74.21875 46.484375 68.546875 
Q 53.21875 62.890625 53.21875 53.421875 
Q 53.21875 48.921875 51.53125 44.890625 
Q 49.859375 40.875 45.40625 35.40625 
Q 44.1875 33.984375 37.640625 27.21875 
Q 31.109375 20.453125 19.1875 8.296875 
z
" id="DejaVuSans-50"/>
      </defs>
      <g transform="translate(111.431563 526.158437)scale(0.1 -0.1)">
       <use xlink:href="#DejaVuSans-48"/>
       <use x="63.623047" xlink:href="#DejaVuSans-46"/>
       <use x="95.410156" xlink:href="#DejaVuSans-50"/>
      </g>
     </g>
    </g>
    <g id="xtick_3">
     <g id="line2d_3">
      <g>
       <use style="stroke:#000000;stroke-width:0.8;" x="208.663125" xlink:href="#m36dc05b625" y="511.56"/>
      </g>
     </g>
     <g id="text_3">
      <!-- 0.4 -->
      <defs>
       <path d="M 37.796875 64.3125 
L 12.890625 25.390625 
L 37.796875 25.390625 
z
M 35.203125 72.90625 
L 47.609375 72.90625 
L 47.609375 25.390625 
L 58.015625 25.390625 
L 58.015625 17.1875 
L 47.609375 17.1875 
L 47.609375 0 
L 37.796875 0 
L 37.796875 17.1875 
L 4.890625 17.1875 
L 4.890625 26.703125 
z
" id="DejaVuSans-52"/>
      </defs>
      <g transform="translate(200.711563 526.158437)scale(0.1 -0.1)">
       <use xlink:href="#DejaVuSans-48"/>
       <use x="63.623047" xlink:href="#DejaVuSans-46"/>
       <use x="95.410156" xlink:href="#DejaVuSans-52"/>
      </g>
     </g>
    </g>
    <g id="xtick_4">
     <g id="line2d_4">
      <g>
       <use style="stroke:#000000;stroke-width:0.8;" x="297.943125" xlink:href="#m36dc05b625" y="511.56"/>
      </g>
     </g>
     <g id="text_4">
      <!-- 0.6 -->
      <defs>
       <path d="M 33.015625 40.375 
Q 26.375 40.375 22.484375 35.828125 
Q 18.609375 31.296875 18.609375 23.390625 
Q 18.609375 15.53125 22.484375 10.953125 
Q 26.375 6.390625 33.015625 6.390625 
Q 39.65625 6.390625 43.53125 10.953125 
Q 47.40625 15.53125 47.40625 23.390625 
Q 47.40625 31.296875 43.53125 35.828125 
Q 39.65625 40.375 33.015625 40.375 
z
M 52.59375 71.296875 
L 52.59375 62.3125 
Q 48.875 64.0625 45.09375 64.984375 
Q 41.3125 65.921875 37.59375 65.921875 
Q 27.828125 65.921875 22.671875 59.328125 
Q 17.53125 52.734375 16.796875 39.40625 
Q 19.671875 43.65625 24.015625 45.921875 
Q 28.375 48.1875 33.59375 48.1875 
Q 44.578125 48.1875 50.953125 41.515625 
Q 57.328125 34.859375 57.328125 23.390625 
Q 57.328125 12.15625 50.6875 5.359375 
Q 44.046875 -1.421875 33.015625 -1.421875 
Q 20.359375 -1.421875 13.671875 8.265625 
Q 6.984375 17.96875 6.984375 36.375 
Q 6.984375 53.65625 15.1875 63.9375 
Q 23.390625 74.21875 37.203125 74.21875 
Q 40.921875 74.21875 44.703125 73.484375 
Q 48.484375 72.75 52.59375 71.296875 
z
" id="DejaVuSans-54"/>
      </defs>
      <g transform="translate(289.991562 526.158437)scale(0.1 -0.1)">
       <use xlink:href="#DejaVuSans-48"/>
       <use x="63.623047" xlink:href="#DejaVuSans-46"/>
       <use x="95.410156" xlink:href="#DejaVuSans-54"/>
      </g>
     </g>
    </g>
    <g id="xtick_5">
     <g id="line2d_5">
      <g>
       <use style="stroke:#000000;stroke-width:0.8;" x="387.223125" xlink:href="#m36dc05b625" y="511.56"/>
      </g>
     </g>
     <g id="text_5">
      <!-- 0.8 -->
      <defs>
       <path d="M 31.78125 34.625 
Q 24.75 34.625 20.71875 30.859375 
Q 16.703125 27.09375 16.703125 20.515625 
Q 16.703125 13.921875 20.71875 10.15625 
Q 24.75 6.390625 31.78125 6.390625 
Q 38.8125 6.390625 42.859375 10.171875 
Q 46.921875 13.96875 46.921875 20.515625 
Q 46.921875 27.09375 42.890625 30.859375 
Q 38.875 34.625 31.78125 34.625 
z
M 21.921875 38.8125 
Q 15.578125 40.375 12.03125 44.71875 
Q 8.5 49.078125 8.5 55.328125 
Q 8.5 64.0625 14.71875 69.140625 
Q 20.953125 74.21875 31.78125 74.21875 
Q 42.671875 74.21875 48.875 69.140625 
Q 55.078125 64.0625 55.078125 55.328125 
Q 55.078125 49.078125 51.53125 44.71875 
Q 48 40.375 41.703125 38.8125 
Q 48.828125 37.15625 52.796875 32.3125 
Q 56.78125 27.484375 56.78125 20.515625 
Q 56.78125 9.90625 50.3125 4.234375 
Q 43.84375 -1.421875 31.78125 -1.421875 
Q 19.734375 -1.421875 13.25 4.234375 
Q 6.78125 9.90625 6.78125 20.515625 
Q 6.78125 27.484375 10.78125 32.3125 
Q 14.796875 37.15625 21.921875 38.8125 
z
M 18.3125 54.390625 
Q 18.3125 48.734375 21.84375 45.5625 
Q 25.390625 42.390625 31.78125 42.390625 
Q 38.140625 42.390625 41.71875 45.5625 
Q 45.3125 48.734375 45.3125 54.390625 
Q 45.3125 60.0625 41.71875 63.234375 
Q 38.140625 66.40625 31.78125 66.40625 
Q 25.390625 66.40625 21.84375 63.234375 
Q 18.3125 60.0625 18.3125 54.390625 
z
" id="DejaVuSans-56"/>
      </defs>
      <g transform="translate(379.271562 526.158437)scale(0.1 -0.1)">
       <use xlink:href="#DejaVuSans-48"/>
       <use x="63.623047" xlink:href="#DejaVuSans-46"/>
       <use x="95.410156" xlink:href="#DejaVuSans-56"/>
      </g>
     </g>
    </g>
    <g id="xtick_6">
     <g id="line2d_6">
      <g>
       <use style="stroke:#000000;stroke-width:0.8;" x="476.503125" xlink:href="#m36dc05b625" y="511.56"/>
      </g>
     </g>
     <g id="text_6">
      <!-- 1.0 -->
      <defs>
       <path d="M 12.40625 8.296875 
L 28.515625 8.296875 
L 28.515625 63.921875 
L 10.984375 60.40625 
L 10.984375 69.390625 
L 28.421875 72.90625 
L 38.28125 72.90625 
L 38.28125 8.296875 
L 54.390625 8.296875 
L 54.390625 0 
L 12.40625 0 
z
" id="DejaVuSans-49"/>
      </defs>
      <g transform="translate(468.551562 526.158437)scale(0.1 -0.1)">
       <use xlink:href="#DejaVuSans-49"/>
       <use x="63.623047" xlink:href="#DejaVuSans-46"/>
       <use x="95.410156" xlink:href="#DejaVuSans-48"/>
      </g>
     </g>
    </g>
   </g>
   <g id="matplotlib.axis_2">
    <g id="ytick_1">
     <g id="line2d_7">
      <defs>
       <path d="M 0 0 
L -3.5 0 
" id="m519de6d81e" style="stroke:#000000;stroke-width:0.8;"/>
      </defs>
      <g>
       <use style="stroke:#000000;stroke-width:0.8;" x="30.103125" xlink:href="#m519de6d81e" y="511.56"/>
      </g>
     </g>
     <g id="text_7">
      <!-- 0.0 -->
      <g transform="translate(7.2 515.359219)scale(0.1 -0.1)">
       <use xlink:href="#DejaVuSans-48"/>
       <use x="63.623047" xlink:href="#DejaVuSans-46"/>
       <use x="95.410156" xlink:href="#DejaVuSans-48"/>
      </g>
     </g>
    </g>
    <g id="ytick_2">
     <g id="line2d_8">
      <g>
       <use style="stroke:#000000;stroke-width:0.8;" x="30.103125" xlink:href="#m519de6d81e" y="413.712"/>
      </g>
     </g>
     <g id="text_8">
      <!-- 0.2 -->
      <g transform="translate(7.2 417.511219)scale(0.1 -0.1)">
       <use xlink:href="#DejaVuSans-48"/>
       <use x="63.623047" xlink:href="#DejaVuSans-46"/>
       <use x="95.410156" xlink:href="#DejaVuSans-50"/>
      </g>
     </g>
    </g>
    <g id="ytick_3">
     <g id="line2d_9">
      <g>
       <use style="stroke:#000000;stroke-width:0.8;" x="30.103125" xlink:href="#m519de6d81e" y="315.864"/>
      </g>
     </g>
     <g id="text_9">
      <!-- 0.4 -->
      <g transform="translate(7.2 319.663219)scale(0.1 -0.1)">
       <use xlink:href="#DejaVuSans-48"/>
       <use x="63.623047" xlink:href="#DejaVuSans-46"/>
       <use x="95.410156" xlink:href="#DejaVuSans-52"/>
      </g>
     </g>
    </g>
    <g id="ytick_4">
     <g id="line2d_10">
      <g>
       <use style="stroke:#000000;stroke-width:0.8;" x="30.103125" xlink:href="#m519de6d81e" y="218.016"/>
      </g>
     </g>
     <g id="text_10">
      <!-- 0.6 -->
      <g transform="translate(7.2 221.815219)scale(0.1 -0.1)">
       <use xlink:href="#DejaVuSans-48"/>
       <use x="63.623047" xlink:href="#DejaVuSans-46"/>
       <use x="95.410156" xlink:href="#DejaVuSans-54"/>
      </g>
     </g>
    </g>
    <g id="ytick_5">
     <g id="line2d_11">
      <g>
       <use style="stroke:#000000;stroke-width:0.8;" x="30.103125" xlink:href="#m519de6d81e" y="120.168"/>
      </g>
     </g>
     <g id="text_11">
      <!-- 0.8 -->
      <g transform="translate(7.2 123.967219)scale(0.1 -0.1)">
       <use xlink:href="#DejaVuSans-48"/>
       <use x="63.623047" xlink:href="#DejaVuSans-46"/>
       <use x="95.410156" xlink:href="#DejaVuSans-56"/>
      </g>
     </g>
    </g>
    <g id="ytick_6">
     <g id="line2d_12">
      <g>
       <use style="stroke:#000000;stroke-width:0.8;" x="30.103125" xlink:href="#m519de6d81e" y="22.32"/>
      </g>
     </g>
     <g id="text_12">
      <!-- 1.0 -->
      <g transform="translate(7.2 26.119219)scale(0.1 -0.1)">
       <use xlink:href="#DejaVuSans-49"/>
       <use x="63.623047" xlink:href="#DejaVuSans-46"/>
       <use x="95.410156" xlink:href="#DejaVuSans-48"/>
      </g>
     </g>
    </g>
   </g>
   <g id="line2d_13">
    <path clip-path="url(#paf9871ef30)" d="M 30.103125 511.56 
L 34.612216 494.438347 
L 39.121307 477.666116 
L 43.630398 461.243306 
L 48.139489 445.169917 
L 52.64858 429.44595 
L 57.15767 414.071405 
L 61.666761 399.046281 
L 66.175852 384.370579 
L 70.684943 370.044298 
L 75.194034 356.067438 
L 79.703125 342.44 
L 84.212216 329.161983 
L 88.721307 316.233388 
L 93.230398 303.654215 
L 97.739489 291.424463 
L 102.24858 279.544132 
L 106.75767 268.013223 
L 111.266761 256.831736 
L 115.775852 245.999669 
L 120.284943 235.517025 
L 124.794034 225.383802 
L 129.303125 215.6 
L 133.812216 206.16562 
L 138.321307 197.080661 
L 142.830398 188.345124 
L 147.339489 179.959008 
L 151.84858 171.922314 
L 156.35767 164.235041 
L 160.866761 156.89719 
L 165.375852 149.90876 
L 169.884943 143.269752 
L 174.394034 136.980165 
L 178.903125 131.04 
L 183.412216 125.449256 
L 187.921307 120.207934 
L 192.430398 115.316033 
L 196.939489 110.773554 
L 201.44858 106.580496 
L 205.95767 102.73686 
L 210.466761 99.242645 
L 214.975852 96.097851 
L 219.484943 93.302479 
L 223.994034 90.856529 
L 228.503125 88.76 
L 233.012216 87.012893 
L 237.521307 85.615207 
L 242.030398 84.566942 
L 246.539489 83.868099 
L 251.04858 83.518678 
L 255.55767 83.518678 
L 260.066761 83.868099 
L 264.575852 84.566942 
L 269.084943 85.615207 
L 273.594034 87.012893 
L 278.103125 88.76 
L 282.612216 90.856529 
L 287.121307 93.302479 
L 291.630398 96.097851 
L 296.139489 99.242645 
L 300.64858 102.73686 
L 305.15767 106.580496 
L 309.666761 110.773554 
L 314.175852 115.316033 
L 318.684943 120.207934 
L 323.194034 125.449256 
L 327.703125 131.04 
L 332.212216 136.980165 
L 336.721307 143.269752 
L 341.230398 149.90876 
L 345.739489 156.89719 
L 350.24858 164.235041 
L 354.75767 171.922314 
L 359.266761 179.959008 
L 363.775852 188.345124 
L 368.284943 197.080661 
L 372.794034 206.16562 
L 377.303125 215.6 
L 381.812216 225.383802 
L 386.321307 235.517025 
L 390.830398 245.999669 
L 395.339489 256.831736 
L 399.84858 268.013223 
L 404.35767 279.544132 
L 408.866761 291.424463 
L 413.375852 303.654215 
L 417.884943 316.233388 
L 422.394034 329.161983 
L 426.903125 342.44 
L 431.412216 356.067438 
L 435.921307 370.044298 
L 440.430398 384.370579 
L 444.939489 399.046281 
L 449.44858 414.071405 
L 453.95767 429.44595 
L 458.466761 445.169917 
L 462.975852 461.243306 
L 467.484943 477.666116 
L 471.994034 494.438347 
L 476.503125 511.56 
" style="fill:none;stroke:#000000;stroke-linecap:square;stroke-width:2;"/>
   </g>
   <g id="line2d_14">
    <path clip-path="url(#paf9871ef30)" d="M 45.570885 494.607834 
L 45.570885 454.283293 
" style="fill:none;stroke:#000000;stroke-linecap:square;"/>
   </g>
   <g id="line2d_15">
    <path clip-path="url(#paf9871ef30)" d="M 45.570885 454.283293 
L 82.364432 454.283293 
" style="fill:none;stroke:#000000;stroke-linecap:square;"/>
   </g>
   <g id="line2d_16">
    <path clip-path="url(#paf9871ef30)" d="M 82.364432 454.283293 
L 82.364432 334.560935 
" style="fill:none;stroke:#000000;stroke-linecap:square;"/>
   </g>
   <g id="line2d_17">
    <path clip-path="url(#paf9871ef30)" d="M 82.364432 334.560935 
L 191.603375 334.560935 
" style="fill:none;stroke:#000000;stroke-linecap:square;"/>
   </g>
   <g id="line2d_18">
    <path clip-path="url(#paf9871ef30)" d="M 191.603375 334.560935 
L 191.603375 116.187101 
" style="fill:none;stroke:#000000;stroke-linecap:square;"/>
   </g>
   <g id="line2d_19">
    <path clip-path="url(#paf9871ef30)" d="M 191.603375 116.187101 
L 390.855439 116.187101 
" style="fill:none;stroke:#000000;stroke-linecap:square;"/>
   </g>
   <g id="line2d_20">
    <path clip-path="url(#paf9871ef30)" d="M 390.855439 116.187101 
L 390.855439 246.058862 
" style="fill:none;stroke:#000000;stroke-linecap:square;"/>
   </g>
   <g id="line2d_21">
    <path clip-path="url(#paf9871ef30)" d="M 390.855439 246.058862 
L 272.355819 246.058862 
" style="fill:none;stroke:#000000;stroke-linecap:square;"/>
   </g>
   <g id="line2d_22">
    <path clip-path="url(#paf9871ef30)" d="M 272.355819 246.058862 
L 272.355819 86.59428 
" style="fill:none;stroke:#000000;stroke-linecap:square;"/>
   </g>
   <g id="line2d_23">
    <path clip-path="url(#paf9871ef30)" d="M 272.355819 86.59428 
L 417.856982 86.59428 
" style="fill:none;stroke:#000000;stroke-linecap:square;"/>
   </g>
   <g id="line2d_24">
    <path clip-path="url(#paf9871ef30)" d="M 417.856982 86.59428 
L 417.856982 316.154309 
" style="fill:none;stroke:#000000;stroke-linecap:square;"/>
   </g>
   <g id="line2d_25">
    <path clip-path="url(#paf9871ef30)" d="M 417.856982 316.154309 
L 208.398237 316.154309 
" style="fill:none;stroke:#000000;stroke-linecap:square;"/>
   </g>
   <g id="line2d_26">
    <path clip-path="url(#paf9871ef30)" d="M 208.398237 316.154309 
L 208.398237 100.802219 
" style="fill:none;stroke:#000000;stroke-linecap:square;"/>
   </g>
   <g id="line2d_27">
    <path clip-path="url(#paf9871ef30)" d="M 208.398237 100.802219 
L 404.893153 100.802219 
" style="fill:none;stroke:#000000;stroke-linecap:square;"/>
   </g>
   <g id="line2d_28">
    <path clip-path="url(#paf9871ef30)" d="M 404.893153 100.802219 
L 404.893153 280.936712 
" style="fill:none;stroke:#000000;stroke-linecap:square;"/>
   </g>
   <g id="line2d_29">
    <path clip-path="url(#paf9871ef30)" d="M 404.893153 280.936712 
L 240.532026 280.936712 
" style="fill:none;stroke:#000000;stroke-linecap:square;"/>
   </g>
   <g id="line2d_30">
    <path clip-path="url(#paf9871ef30)" d="M 240.532026 280.936712 
L 240.532026 84.876516 
" style="fill:none;stroke:#000000;stroke-linecap:square;"/>
   </g>
   <g id="line2d_31">
    <path clip-path="url(#paf9871ef30)" d="M 240.532026 84.876516 
L 419.424332 84.876516 
" style="fill:none;stroke:#000000;stroke-linecap:square;"/>
   </g>
   <g id="line2d_32">
    <path clip-path="url(#paf9871ef30)" d="M 419.424332 84.876516 
L 419.424332 320.607884 
" style="fill:none;stroke:#000000;stroke-linecap:square;"/>
   </g>
   <g id="line2d_33">
    <path clip-path="url(#paf9871ef30)" d="M 419.424332 320.607884 
L 204.334636 320.607884 
" style="fill:none;stroke:#000000;stroke-linecap:square;"/>
   </g>
   <g id="line2d_34">
    <path clip-path="url(#paf9871ef30)" d="M 204.334636 320.607884 
L 204.334636 104.080115 
" style="fill:none;stroke:#000000;stroke-linecap:square;"/>
   </g>
   <g id="line2d_35">
    <path clip-path="url(#paf9871ef30)" d="M 204.334636 104.080115 
L 401.902284 104.080115 
" style="fill:none;stroke:#000000;stroke-linecap:square;"/>
   </g>
   <g id="line2d_36">
    <path clip-path="url(#paf9871ef30)" d="M 401.902284 104.080115 
L 401.902284 273.221746 
" style="fill:none;stroke:#000000;stroke-linecap:square;"/>
   </g>
   <g id="line2d_37">
    <path clip-path="url(#paf9871ef30)" d="M 401.902284 273.221746 
L 247.571437 273.221746 
" style="fill:none;stroke:#000000;stroke-linecap:square;"/>
   </g>
   <g id="line2d_38">
    <path clip-path="url(#paf9871ef30)" d="M 247.571437 273.221746 
L 247.571437 83.757297 
" style="fill:none;stroke:#000000;stroke-linecap:square;"/>
   </g>
   <g id="line2d_39">
    <path clip-path="url(#paf9871ef30)" d="M 247.571437 83.757297 
L 420.445547 83.757297 
" style="fill:none;stroke:#000000;stroke-linecap:square;"/>
   </g>
   <g id="line2d_40">
    <path clip-path="url(#paf9871ef30)" d="M 420.445547 83.757297 
L 420.445547 323.532352 
" style="fill:none;stroke:#000000;stroke-linecap:square;"/>
   </g>
   <g id="line2d_41">
    <path clip-path="url(#paf9871ef30)" d="M 420.445547 323.532352 
L 201.666247 323.532352 
" style="fill:none;stroke:#000000;stroke-linecap:square;"/>
   </g>
   <g id="line2d_42">
    <path clip-path="url(#paf9871ef30)" d="M 201.666247 323.532352 
L 201.666247 106.386925 
" style="fill:none;stroke:#000000;stroke-linecap:square;"/>
   </g>
   <g id="line2d_43">
    <path clip-path="url(#paf9871ef30)" d="M 201.666247 106.386925 
L 399.797469 106.386925 
" style="fill:none;stroke:#000000;stroke-linecap:square;"/>
   </g>
   <g id="line2d_44">
    <path clip-path="url(#paf9871ef30)" d="M 399.797469 106.386925 
L 399.797469 267.884522 
" style="fill:none;stroke:#000000;stroke-linecap:square;"/>
   </g>
   <g id="line2d_45">
    <path clip-path="url(#paf9871ef30)" d="M 399.797469 267.884522 
L 252.441309 267.884522 
" style="fill:none;stroke:#000000;stroke-linecap:square;"/>
   </g>
   <g id="line2d_46">
    <path clip-path="url(#paf9871ef30)" d="M 252.441309 267.884522 
L 252.441309 83.481382 
" style="fill:none;stroke:#000000;stroke-linecap:square;"/>
   </g>
   <g id="line2d_47">
    <path clip-path="url(#paf9871ef30)" d="M 252.441309 83.481382 
L 420.697302 83.481382 
" style="fill:none;stroke:#000000;stroke-linecap:square;"/>
   </g>
   <g id="line2d_48">
    <path clip-path="url(#paf9871ef30)" d="M 420.697302 83.481382 
L 420.697302 324.25606 
" style="fill:none;stroke:#000000;stroke-linecap:square;"/>
   </g>
   <g id="line2d_49">
    <path clip-path="url(#paf9871ef30)" d="M 420.697302 324.25606 
L 201.005911 324.25606 
" style="fill:none;stroke:#000000;stroke-linecap:square;"/>
   </g>
   <g id="line2d_50">
    <path clip-path="url(#paf9871ef30)" d="M 201.005911 324.25606 
L 201.005911 106.976671 
" style="fill:none;stroke:#000000;stroke-linecap:square;"/>
   </g>
   <g id="line2d_51">
    <path clip-path="url(#paf9871ef30)" d="M 201.005911 106.976671 
L 399.259364 106.976671 
" style="fill:none;stroke:#000000;stroke-linecap:square;"/>
   </g>
   <g id="line2d_52">
    <path clip-path="url(#paf9871ef30)" d="M 399.259364 106.976671 
L 399.259364 266.532259 
" style="fill:none;stroke:#000000;stroke-linecap:square;"/>
   </g>
   <g id="line2d_53">
    <path clip-path="url(#paf9871ef30)" d="M 399.259364 266.532259 
L 253.675162 266.532259 
" style="fill:none;stroke:#000000;stroke-linecap:square;"/>
   </g>
   <g id="line2d_54">
    <path clip-path="url(#paf9871ef30)" d="M 253.675162 266.532259 
L 253.675162 83.476189 
" style="fill:none;stroke:#000000;stroke-linecap:square;"/>
   </g>
   <g id="line2d_55">
    <path clip-path="url(#paf9871ef30)" d="M 253.675162 83.476189 
L 420.70204 83.476189 
" style="fill:none;stroke:#000000;stroke-linecap:square;"/>
   </g>
   <g id="line2d_56">
    <path clip-path="url(#paf9871ef30)" d="M 420.70204 83.476189 
L 420.70204 324.26969 
" style="fill:none;stroke:#000000;stroke-linecap:square;"/>
   </g>
   <g id="line2d_57">
    <path clip-path="url(#paf9871ef30)" d="M 420.70204 324.26969 
L 200.993474 324.26969 
" style="fill:none;stroke:#000000;stroke-linecap:square;"/>
   </g>
   <g id="line2d_58">
    <path clip-path="url(#paf9871ef30)" d="M 200.993474 324.26969 
L 200.993474 106.98785 
" style="fill:none;stroke:#000000;stroke-linecap:square;"/>
   </g>
   <g id="line2d_59">
    <path clip-path="url(#paf9871ef30)" d="M 200.993474 106.98785 
L 399.249163 106.98785 
" style="fill:none;stroke:#000000;stroke-linecap:square;"/>
   </g>
   <g id="line2d_60">
    <path clip-path="url(#paf9871ef30)" d="M 399.249163 106.98785 
L 399.249163 266.506673 
" style="fill:none;stroke:#000000;stroke-linecap:square;"/>
   </g>
   <g id="line2d_61">
    <path clip-path="url(#paf9871ef30)" d="M 399.249163 266.506673 
L 253.698508 266.506673 
" style="fill:none;stroke:#000000;stroke-linecap:square;"/>
   </g>
   <g id="line2d_62">
    <path clip-path="url(#paf9871ef30)" d="M 253.698508 266.506673 
L 253.698508 83.476343 
" style="fill:none;stroke:#000000;stroke-linecap:square;"/>
   </g>
   <g id="line2d_63">
    <path clip-path="url(#paf9871ef30)" d="M 253.698508 83.476343 
L 420.701899 83.476343 
" style="fill:none;stroke:#000000;stroke-linecap:square;"/>
   </g>
   <g id="line2d_64">
    <path clip-path="url(#paf9871ef30)" d="M 420.701899 83.476343 
L 420.701899 324.269286 
" style="fill:none;stroke:#000000;stroke-linecap:square;"/>
   </g>
   <g id="line2d_65">
    <path clip-path="url(#paf9871ef30)" d="M 420.701899 324.269286 
L 200.993842 324.269286 
" style="fill:none;stroke:#000000;stroke-linecap:square;"/>
   </g>
   <g id="line2d_66">
    <path clip-path="url(#paf9871ef30)" d="M 200.993842 324.269286 
L 200.993842 106.987519 
" style="fill:none;stroke:#000000;stroke-linecap:square;"/>
   </g>
   <g id="line2d_67">
    <path clip-path="url(#paf9871ef30)" d="M 200.993842 106.987519 
L 399.249465 106.987519 
" style="fill:none;stroke:#000000;stroke-linecap:square;"/>
   </g>
   <g id="line2d_68">
    <path clip-path="url(#paf9871ef30)" d="M 399.249465 106.987519 
L 399.249465 266.507431 
" style="fill:none;stroke:#000000;stroke-linecap:square;"/>
   </g>
   <g id="line2d_69">
    <path clip-path="url(#paf9871ef30)" d="M 399.249465 266.507431 
L 253.697816 266.507431 
" style="fill:none;stroke:#000000;stroke-linecap:square;"/>
   </g>
   <g id="line2d_70">
    <path clip-path="url(#paf9871ef30)" d="M 253.697816 266.507431 
L 253.697816 83.476339 
" style="fill:none;stroke:#000000;stroke-linecap:square;"/>
   </g>
   <g id="line2d_71">
    <path clip-path="url(#paf9871ef30)" d="M 253.697816 83.476339 
L 420.701904 83.476339 
" style="fill:none;stroke:#000000;stroke-linecap:square;"/>
   </g>
   <g id="line2d_72">
    <path clip-path="url(#paf9871ef30)" d="M 420.701904 83.476339 
L 420.701904 324.269299 
" style="fill:none;stroke:#000000;stroke-linecap:square;"/>
   </g>
   <g id="line2d_73">
    <path clip-path="url(#paf9871ef30)" d="M 420.701904 324.269299 
L 200.993831 324.269299 
" style="fill:none;stroke:#000000;stroke-linecap:square;"/>
   </g>
   <g id="line2d_74">
    <path clip-path="url(#paf9871ef30)" d="M 200.993831 324.269299 
L 200.993831 106.987529 
" style="fill:none;stroke:#000000;stroke-linecap:square;"/>
   </g>
   <g id="line2d_75">
    <path clip-path="url(#paf9871ef30)" d="M 200.993831 106.987529 
L 399.249456 106.987529 
" style="fill:none;stroke:#000000;stroke-linecap:square;"/>
   </g>
   <g id="line2d_76">
    <path clip-path="url(#paf9871ef30)" d="M 399.249456 106.987529 
L 399.249456 266.507408 
" style="fill:none;stroke:#000000;stroke-linecap:square;"/>
   </g>
   <g id="line2d_77">
    <path clip-path="url(#paf9871ef30)" d="M 399.249456 266.507408 
L 253.697837 266.507408 
" style="fill:none;stroke:#000000;stroke-linecap:square;"/>
   </g>
   <g id="line2d_78">
    <path clip-path="url(#paf9871ef30)" d="M 253.697837 266.507408 
L 253.697837 83.476339 
" style="fill:none;stroke:#000000;stroke-linecap:square;"/>
   </g>
   <g id="line2d_79">
    <path clip-path="url(#paf9871ef30)" d="M 253.697837 83.476339 
L 420.701903 83.476339 
" style="fill:none;stroke:#000000;stroke-linecap:square;"/>
   </g>
   <g id="line2d_80">
    <path clip-path="url(#paf9871ef30)" d="M 420.701903 83.476339 
L 420.701903 324.269298 
" style="fill:none;stroke:#000000;stroke-linecap:square;"/>
   </g>
   <g id="line2d_81">
    <path clip-path="url(#paf9871ef30)" d="M 420.701903 324.269298 
L 200.993832 324.269298 
" style="fill:none;stroke:#000000;stroke-linecap:square;"/>
   </g>
   <g id="line2d_82">
    <path clip-path="url(#paf9871ef30)" d="M 200.993832 324.269298 
L 200.993832 106.987529 
" style="fill:none;stroke:#000000;stroke-linecap:square;"/>
   </g>
   <g id="line2d_83">
    <path clip-path="url(#paf9871ef30)" d="M 200.993832 106.987529 
L 399.249456 106.987529 
" style="fill:none;stroke:#000000;stroke-linecap:square;"/>
   </g>
   <g id="line2d_84">
    <path clip-path="url(#paf9871ef30)" d="M 399.249456 106.987529 
L 399.249456 266.507409 
" style="fill:none;stroke:#000000;stroke-linecap:square;"/>
   </g>
   <g id="line2d_85">
    <path clip-path="url(#paf9871ef30)" d="M 399.249456 266.507409 
L 253.697836 266.507409 
" style="fill:none;stroke:#000000;stroke-linecap:square;"/>
   </g>
   <g id="line2d_86">
    <path clip-path="url(#paf9871ef30)" d="M 253.697836 266.507409 
L 253.697836 83.476339 
" style="fill:none;stroke:#000000;stroke-linecap:square;"/>
   </g>
   <g id="line2d_87">
    <path clip-path="url(#paf9871ef30)" d="M 253.697836 83.476339 
L 420.701903 83.476339 
" style="fill:none;stroke:#000000;stroke-linecap:square;"/>
   </g>
   <g id="line2d_88">
    <path clip-path="url(#paf9871ef30)" d="M 420.701903 83.476339 
L 420.701903 324.269298 
" style="fill:none;stroke:#000000;stroke-linecap:square;"/>
   </g>
   <g id="line2d_89">
    <path clip-path="url(#paf9871ef30)" d="M 420.701903 324.269298 
L 200.993831 324.269298 
" style="fill:none;stroke:#000000;stroke-linecap:square;"/>
   </g>
   <g id="line2d_90">
    <path clip-path="url(#paf9871ef30)" d="M 200.993831 324.269298 
L 200.993831 106.987529 
" style="fill:none;stroke:#000000;stroke-linecap:square;"/>
   </g>
   <g id="line2d_91">
    <path clip-path="url(#paf9871ef30)" d="M 200.993831 106.987529 
L 399.249456 106.987529 
" style="fill:none;stroke:#000000;stroke-linecap:square;"/>
   </g>
   <g id="line2d_92">
    <path clip-path="url(#paf9871ef30)" d="M 399.249456 106.987529 
L 399.249456 266.507409 
" style="fill:none;stroke:#000000;stroke-linecap:square;"/>
   </g>
   <g id="line2d_93">
    <path clip-path="url(#paf9871ef30)" d="M 399.249456 266.507409 
L 253.697836 266.507409 
" style="fill:none;stroke:#000000;stroke-linecap:square;"/>
   </g>
   <g id="line2d_94">
    <path clip-path="url(#paf9871ef30)" d="M 253.697836 266.507409 
L 253.697836 83.476339 
" style="fill:none;stroke:#000000;stroke-linecap:square;"/>
   </g>
   <g id="line2d_95">
    <path clip-path="url(#paf9871ef30)" d="M 253.697836 83.476339 
L 420.701903 83.476339 
" style="fill:none;stroke:#000000;stroke-linecap:square;"/>
   </g>
   <g id="line2d_96">
    <path clip-path="url(#paf9871ef30)" d="M 420.701903 83.476339 
L 420.701903 324.269298 
" style="fill:none;stroke:#000000;stroke-linecap:square;"/>
   </g>
   <g id="line2d_97">
    <path clip-path="url(#paf9871ef30)" d="M 420.701903 324.269298 
L 200.993831 324.269298 
" style="fill:none;stroke:#000000;stroke-linecap:square;"/>
   </g>
   <g id="line2d_98">
    <path clip-path="url(#paf9871ef30)" d="M 200.993831 324.269298 
L 200.993831 106.987529 
" style="fill:none;stroke:#000000;stroke-linecap:square;"/>
   </g>
   <g id="line2d_99">
    <path clip-path="url(#paf9871ef30)" d="M 200.993831 106.987529 
L 399.249456 106.987529 
" style="fill:none;stroke:#000000;stroke-linecap:square;"/>
   </g>
   <g id="line2d_100">
    <path clip-path="url(#paf9871ef30)" d="M 399.249456 106.987529 
L 399.249456 266.507409 
" style="fill:none;stroke:#000000;stroke-linecap:square;"/>
   </g>
   <g id="line2d_101">
    <path clip-path="url(#paf9871ef30)" d="M 399.249456 266.507409 
L 253.697836 266.507409 
" style="fill:none;stroke:#000000;stroke-linecap:square;"/>
   </g>
   <g id="line2d_102">
    <path clip-path="url(#paf9871ef30)" d="M 253.697836 266.507409 
L 253.697836 83.476339 
" style="fill:none;stroke:#000000;stroke-linecap:square;"/>
   </g>
   <g id="line2d_103">
    <path clip-path="url(#paf9871ef30)" d="M 253.697836 83.476339 
L 420.701903 83.476339 
" style="fill:none;stroke:#000000;stroke-linecap:square;"/>
   </g>
   <g id="line2d_104">
    <path clip-path="url(#paf9871ef30)" d="M 420.701903 83.476339 
L 420.701903 324.269298 
" style="fill:none;stroke:#000000;stroke-linecap:square;"/>
   </g>
   <g id="line2d_105">
    <path clip-path="url(#paf9871ef30)" d="M 420.701903 324.269298 
L 200.993831 324.269298 
" style="fill:none;stroke:#000000;stroke-linecap:square;"/>
   </g>
   <g id="line2d_106">
    <path clip-path="url(#paf9871ef30)" d="M 200.993831 324.269298 
L 200.993831 106.987529 
" style="fill:none;stroke:#000000;stroke-linecap:square;"/>
   </g>
   <g id="line2d_107">
    <path clip-path="url(#paf9871ef30)" d="M 200.993831 106.987529 
L 399.249456 106.987529 
" style="fill:none;stroke:#000000;stroke-linecap:square;"/>
   </g>
   <g id="line2d_108">
    <path clip-path="url(#paf9871ef30)" d="M 399.249456 106.987529 
L 399.249456 266.507409 
" style="fill:none;stroke:#000000;stroke-linecap:square;"/>
   </g>
   <g id="line2d_109">
    <path clip-path="url(#paf9871ef30)" d="M 399.249456 266.507409 
L 253.697836 266.507409 
" style="fill:none;stroke:#000000;stroke-linecap:square;"/>
   </g>
   <g id="line2d_110">
    <path clip-path="url(#paf9871ef30)" d="M 253.697836 266.507409 
L 253.697836 83.476339 
" style="fill:none;stroke:#000000;stroke-linecap:square;"/>
   </g>
   <g id="line2d_111">
    <path clip-path="url(#paf9871ef30)" d="M 253.697836 83.476339 
L 420.701903 83.476339 
" style="fill:none;stroke:#000000;stroke-linecap:square;"/>
   </g>
   <g id="line2d_112">
    <path clip-path="url(#paf9871ef30)" d="M 420.701903 83.476339 
L 420.701903 324.269298 
" style="fill:none;stroke:#000000;stroke-linecap:square;"/>
   </g>
   <g id="line2d_113">
    <path clip-path="url(#paf9871ef30)" d="M 420.701903 324.269298 
L 200.993831 324.269298 
" style="fill:none;stroke:#000000;stroke-linecap:square;"/>
   </g>
   <g id="line2d_114">
    <path clip-path="url(#paf9871ef30)" d="M 200.993831 324.269298 
L 200.993831 106.987529 
" style="fill:none;stroke:#000000;stroke-linecap:square;"/>
   </g>
   <g id="line2d_115">
    <path clip-path="url(#paf9871ef30)" d="M 200.993831 106.987529 
L 399.249456 106.987529 
" style="fill:none;stroke:#000000;stroke-linecap:square;"/>
   </g>
   <g id="line2d_116">
    <path clip-path="url(#paf9871ef30)" d="M 399.249456 106.987529 
L 399.249456 266.507409 
" style="fill:none;stroke:#000000;stroke-linecap:square;"/>
   </g>
   <g id="line2d_117">
    <path clip-path="url(#paf9871ef30)" d="M 399.249456 266.507409 
L 253.697836 266.507409 
" style="fill:none;stroke:#000000;stroke-linecap:square;"/>
   </g>
   <g id="line2d_118">
    <path clip-path="url(#paf9871ef30)" d="M 253.697836 266.507409 
L 253.697836 83.476339 
" style="fill:none;stroke:#000000;stroke-linecap:square;"/>
   </g>
   <g id="line2d_119">
    <path clip-path="url(#paf9871ef30)" d="M 253.697836 83.476339 
L 420.701903 83.476339 
" style="fill:none;stroke:#000000;stroke-linecap:square;"/>
   </g>
   <g id="line2d_120">
    <path clip-path="url(#paf9871ef30)" d="M 420.701903 83.476339 
L 420.701903 324.269298 
" style="fill:none;stroke:#000000;stroke-linecap:square;"/>
   </g>
   <g id="line2d_121">
    <path clip-path="url(#paf9871ef30)" d="M 420.701903 324.269298 
L 200.993831 324.269298 
" style="fill:none;stroke:#000000;stroke-linecap:square;"/>
   </g>
   <g id="line2d_122">
    <path clip-path="url(#paf9871ef30)" d="M 200.993831 324.269298 
L 200.993831 106.987529 
" style="fill:none;stroke:#000000;stroke-linecap:square;"/>
   </g>
   <g id="line2d_123">
    <path clip-path="url(#paf9871ef30)" d="M 200.993831 106.987529 
L 399.249456 106.987529 
" style="fill:none;stroke:#000000;stroke-linecap:square;"/>
   </g>
   <g id="line2d_124">
    <path clip-path="url(#paf9871ef30)" d="M 399.249456 106.987529 
L 399.249456 266.507409 
" style="fill:none;stroke:#000000;stroke-linecap:square;"/>
   </g>
   <g id="line2d_125">
    <path clip-path="url(#paf9871ef30)" d="M 399.249456 266.507409 
L 253.697836 266.507409 
" style="fill:none;stroke:#000000;stroke-linecap:square;"/>
   </g>
   <g id="line2d_126">
    <path clip-path="url(#paf9871ef30)" d="M 253.697836 266.507409 
L 253.697836 83.476339 
" style="fill:none;stroke:#000000;stroke-linecap:square;"/>
   </g>
   <g id="line2d_127">
    <path clip-path="url(#paf9871ef30)" d="M 253.697836 83.476339 
L 420.701903 83.476339 
" style="fill:none;stroke:#000000;stroke-linecap:square;"/>
   </g>
   <g id="line2d_128">
    <path clip-path="url(#paf9871ef30)" d="M 420.701903 83.476339 
L 420.701903 324.269298 
" style="fill:none;stroke:#000000;stroke-linecap:square;"/>
   </g>
   <g id="line2d_129">
    <path clip-path="url(#paf9871ef30)" d="M 420.701903 324.269298 
L 200.993831 324.269298 
" style="fill:none;stroke:#000000;stroke-linecap:square;"/>
   </g>
   <g id="line2d_130">
    <path clip-path="url(#paf9871ef30)" d="M 200.993831 324.269298 
L 200.993831 106.987529 
" style="fill:none;stroke:#000000;stroke-linecap:square;"/>
   </g>
   <g id="line2d_131">
    <path clip-path="url(#paf9871ef30)" d="M 200.993831 106.987529 
L 399.249456 106.987529 
" style="fill:none;stroke:#000000;stroke-linecap:square;"/>
   </g>
   <g id="line2d_132">
    <path clip-path="url(#paf9871ef30)" d="M 399.249456 106.987529 
L 399.249456 266.507409 
" style="fill:none;stroke:#000000;stroke-linecap:square;"/>
   </g>
   <g id="line2d_133">
    <path clip-path="url(#paf9871ef30)" d="M 399.249456 266.507409 
L 253.697836 266.507409 
" style="fill:none;stroke:#000000;stroke-linecap:square;"/>
   </g>
   <g id="line2d_134">
    <path clip-path="url(#paf9871ef30)" d="M 253.697836 266.507409 
L 253.697836 83.476339 
" style="fill:none;stroke:#000000;stroke-linecap:square;"/>
   </g>
   <g id="line2d_135">
    <path clip-path="url(#paf9871ef30)" d="M 253.697836 83.476339 
L 420.701903 83.476339 
" style="fill:none;stroke:#000000;stroke-linecap:square;"/>
   </g>
   <g id="line2d_136">
    <path clip-path="url(#paf9871ef30)" d="M 420.701903 83.476339 
L 420.701903 324.269298 
" style="fill:none;stroke:#000000;stroke-linecap:square;"/>
   </g>
   <g id="line2d_137">
    <path clip-path="url(#paf9871ef30)" d="M 420.701903 324.269298 
L 200.993831 324.269298 
" style="fill:none;stroke:#000000;stroke-linecap:square;"/>
   </g>
   <g id="line2d_138">
    <path clip-path="url(#paf9871ef30)" d="M 200.993831 324.269298 
L 200.993831 106.987529 
" style="fill:none;stroke:#000000;stroke-linecap:square;"/>
   </g>
   <g id="line2d_139">
    <path clip-path="url(#paf9871ef30)" d="M 200.993831 106.987529 
L 399.249456 106.987529 
" style="fill:none;stroke:#000000;stroke-linecap:square;"/>
   </g>
   <g id="line2d_140">
    <path clip-path="url(#paf9871ef30)" d="M 399.249456 106.987529 
L 399.249456 266.507409 
" style="fill:none;stroke:#000000;stroke-linecap:square;"/>
   </g>
   <g id="line2d_141">
    <path clip-path="url(#paf9871ef30)" d="M 399.249456 266.507409 
L 253.697836 266.507409 
" style="fill:none;stroke:#000000;stroke-linecap:square;"/>
   </g>
   <g id="line2d_142">
    <path clip-path="url(#paf9871ef30)" d="M 253.697836 266.507409 
L 253.697836 83.476339 
" style="fill:none;stroke:#000000;stroke-linecap:square;"/>
   </g>
   <g id="line2d_143">
    <path clip-path="url(#paf9871ef30)" d="M 253.697836 83.476339 
L 420.701903 83.476339 
" style="fill:none;stroke:#000000;stroke-linecap:square;"/>
   </g>
   <g id="line2d_144">
    <path clip-path="url(#paf9871ef30)" d="M 420.701903 83.476339 
L 420.701903 324.269298 
" style="fill:none;stroke:#000000;stroke-linecap:square;"/>
   </g>
   <g id="line2d_145">
    <path clip-path="url(#paf9871ef30)" d="M 420.701903 324.269298 
L 200.993831 324.269298 
" style="fill:none;stroke:#000000;stroke-linecap:square;"/>
   </g>
   <g id="line2d_146">
    <path clip-path="url(#paf9871ef30)" d="M 200.993831 324.269298 
L 200.993831 106.987529 
" style="fill:none;stroke:#000000;stroke-linecap:square;"/>
   </g>
   <g id="line2d_147">
    <path clip-path="url(#paf9871ef30)" d="M 200.993831 106.987529 
L 399.249456 106.987529 
" style="fill:none;stroke:#000000;stroke-linecap:square;"/>
   </g>
   <g id="line2d_148">
    <path clip-path="url(#paf9871ef30)" d="M 399.249456 106.987529 
L 399.249456 266.507409 
" style="fill:none;stroke:#000000;stroke-linecap:square;"/>
   </g>
   <g id="line2d_149">
    <path clip-path="url(#paf9871ef30)" d="M 399.249456 266.507409 
L 253.697836 266.507409 
" style="fill:none;stroke:#000000;stroke-linecap:square;"/>
   </g>
   <g id="line2d_150">
    <path clip-path="url(#paf9871ef30)" d="M 253.697836 266.507409 
L 253.697836 83.476339 
" style="fill:none;stroke:#000000;stroke-linecap:square;"/>
   </g>
   <g id="line2d_151">
    <path clip-path="url(#paf9871ef30)" d="M 253.697836 83.476339 
L 420.701903 83.476339 
" style="fill:none;stroke:#000000;stroke-linecap:square;"/>
   </g>
   <g id="line2d_152">
    <path clip-path="url(#paf9871ef30)" d="M 420.701903 83.476339 
L 420.701903 324.269298 
" style="fill:none;stroke:#000000;stroke-linecap:square;"/>
   </g>
   <g id="line2d_153">
    <path clip-path="url(#paf9871ef30)" d="M 420.701903 324.269298 
L 200.993831 324.269298 
" style="fill:none;stroke:#000000;stroke-linecap:square;"/>
   </g>
   <g id="line2d_154">
    <path clip-path="url(#paf9871ef30)" d="M 200.993831 324.269298 
L 200.993831 106.987529 
" style="fill:none;stroke:#000000;stroke-linecap:square;"/>
   </g>
   <g id="line2d_155">
    <path clip-path="url(#paf9871ef30)" d="M 200.993831 106.987529 
L 399.249456 106.987529 
" style="fill:none;stroke:#000000;stroke-linecap:square;"/>
   </g>
   <g id="line2d_156">
    <path clip-path="url(#paf9871ef30)" d="M 399.249456 106.987529 
L 399.249456 266.507409 
" style="fill:none;stroke:#000000;stroke-linecap:square;"/>
   </g>
   <g id="line2d_157">
    <path clip-path="url(#paf9871ef30)" d="M 399.249456 266.507409 
L 253.697836 266.507409 
" style="fill:none;stroke:#000000;stroke-linecap:square;"/>
   </g>
   <g id="line2d_158">
    <path clip-path="url(#paf9871ef30)" d="M 253.697836 266.507409 
L 253.697836 83.476339 
" style="fill:none;stroke:#000000;stroke-linecap:square;"/>
   </g>
   <g id="line2d_159">
    <path clip-path="url(#paf9871ef30)" d="M 253.697836 83.476339 
L 420.701903 83.476339 
" style="fill:none;stroke:#000000;stroke-linecap:square;"/>
   </g>
   <g id="line2d_160">
    <path clip-path="url(#paf9871ef30)" d="M 420.701903 83.476339 
L 420.701903 324.269298 
" style="fill:none;stroke:#000000;stroke-linecap:square;"/>
   </g>
   <g id="line2d_161">
    <path clip-path="url(#paf9871ef30)" d="M 420.701903 324.269298 
L 200.993831 324.269298 
" style="fill:none;stroke:#000000;stroke-linecap:square;"/>
   </g>
   <g id="line2d_162">
    <path clip-path="url(#paf9871ef30)" d="M 200.993831 324.269298 
L 200.993831 106.987529 
" style="fill:none;stroke:#000000;stroke-linecap:square;"/>
   </g>
   <g id="line2d_163">
    <path clip-path="url(#paf9871ef30)" d="M 200.993831 106.987529 
L 399.249456 106.987529 
" style="fill:none;stroke:#000000;stroke-linecap:square;"/>
   </g>
   <g id="line2d_164">
    <path clip-path="url(#paf9871ef30)" d="M 399.249456 106.987529 
L 399.249456 266.507409 
" style="fill:none;stroke:#000000;stroke-linecap:square;"/>
   </g>
   <g id="line2d_165">
    <path clip-path="url(#paf9871ef30)" d="M 399.249456 266.507409 
L 253.697836 266.507409 
" style="fill:none;stroke:#000000;stroke-linecap:square;"/>
   </g>
   <g id="line2d_166">
    <path clip-path="url(#paf9871ef30)" d="M 253.697836 266.507409 
L 253.697836 83.476339 
" style="fill:none;stroke:#000000;stroke-linecap:square;"/>
   </g>
   <g id="line2d_167">
    <path clip-path="url(#paf9871ef30)" d="M 253.697836 83.476339 
L 420.701903 83.476339 
" style="fill:none;stroke:#000000;stroke-linecap:square;"/>
   </g>
   <g id="line2d_168">
    <path clip-path="url(#paf9871ef30)" d="M 420.701903 83.476339 
L 420.701903 324.269298 
" style="fill:none;stroke:#000000;stroke-linecap:square;"/>
   </g>
   <g id="line2d_169">
    <path clip-path="url(#paf9871ef30)" d="M 420.701903 324.269298 
L 200.993831 324.269298 
" style="fill:none;stroke:#000000;stroke-linecap:square;"/>
   </g>
   <g id="line2d_170">
    <path clip-path="url(#paf9871ef30)" d="M 200.993831 324.269298 
L 200.993831 106.987529 
" style="fill:none;stroke:#000000;stroke-linecap:square;"/>
   </g>
   <g id="line2d_171">
    <path clip-path="url(#paf9871ef30)" d="M 200.993831 106.987529 
L 399.249456 106.987529 
" style="fill:none;stroke:#000000;stroke-linecap:square;"/>
   </g>
   <g id="line2d_172">
    <path clip-path="url(#paf9871ef30)" d="M 399.249456 106.987529 
L 399.249456 266.507409 
" style="fill:none;stroke:#000000;stroke-linecap:square;"/>
   </g>
   <g id="line2d_173">
    <path clip-path="url(#paf9871ef30)" d="M 399.249456 266.507409 
L 253.697836 266.507409 
" style="fill:none;stroke:#000000;stroke-linecap:square;"/>
   </g>
   <g id="line2d_174">
    <path clip-path="url(#paf9871ef30)" d="M 253.697836 266.507409 
L 253.697836 83.476339 
" style="fill:none;stroke:#000000;stroke-linecap:square;"/>
   </g>
   <g id="line2d_175">
    <path clip-path="url(#paf9871ef30)" d="M 253.697836 83.476339 
L 420.701903 83.476339 
" style="fill:none;stroke:#000000;stroke-linecap:square;"/>
   </g>
   <g id="line2d_176">
    <path clip-path="url(#paf9871ef30)" d="M 420.701903 83.476339 
L 420.701903 324.269298 
" style="fill:none;stroke:#000000;stroke-linecap:square;"/>
   </g>
   <g id="line2d_177">
    <path clip-path="url(#paf9871ef30)" d="M 420.701903 324.269298 
L 200.993831 324.269298 
" style="fill:none;stroke:#000000;stroke-linecap:square;"/>
   </g>
   <g id="line2d_178">
    <path clip-path="url(#paf9871ef30)" d="M 200.993831 324.269298 
L 200.993831 106.987529 
" style="fill:none;stroke:#000000;stroke-linecap:square;"/>
   </g>
   <g id="line2d_179">
    <path clip-path="url(#paf9871ef30)" d="M 200.993831 106.987529 
L 399.249456 106.987529 
" style="fill:none;stroke:#000000;stroke-linecap:square;"/>
   </g>
   <g id="line2d_180">
    <path clip-path="url(#paf9871ef30)" d="M 399.249456 106.987529 
L 399.249456 266.507409 
" style="fill:none;stroke:#000000;stroke-linecap:square;"/>
   </g>
   <g id="line2d_181">
    <path clip-path="url(#paf9871ef30)" d="M 399.249456 266.507409 
L 253.697836 266.507409 
" style="fill:none;stroke:#000000;stroke-linecap:square;"/>
   </g>
   <g id="line2d_182">
    <path clip-path="url(#paf9871ef30)" d="M 253.697836 266.507409 
L 253.697836 83.476339 
" style="fill:none;stroke:#000000;stroke-linecap:square;"/>
   </g>
   <g id="line2d_183">
    <path clip-path="url(#paf9871ef30)" d="M 253.697836 83.476339 
L 420.701903 83.476339 
" style="fill:none;stroke:#000000;stroke-linecap:square;"/>
   </g>
   <g id="line2d_184">
    <path clip-path="url(#paf9871ef30)" d="M 420.701903 83.476339 
L 420.701903 324.269298 
" style="fill:none;stroke:#000000;stroke-linecap:square;"/>
   </g>
   <g id="line2d_185">
    <path clip-path="url(#paf9871ef30)" d="M 420.701903 324.269298 
L 200.993831 324.269298 
" style="fill:none;stroke:#000000;stroke-linecap:square;"/>
   </g>
   <g id="line2d_186">
    <path clip-path="url(#paf9871ef30)" d="M 200.993831 324.269298 
L 200.993831 106.987529 
" style="fill:none;stroke:#000000;stroke-linecap:square;"/>
   </g>
   <g id="line2d_187">
    <path clip-path="url(#paf9871ef30)" d="M 200.993831 106.987529 
L 399.249456 106.987529 
" style="fill:none;stroke:#000000;stroke-linecap:square;"/>
   </g>
   <g id="line2d_188">
    <path clip-path="url(#paf9871ef30)" d="M 399.249456 106.987529 
L 399.249456 266.507409 
" style="fill:none;stroke:#000000;stroke-linecap:square;"/>
   </g>
   <g id="line2d_189">
    <path clip-path="url(#paf9871ef30)" d="M 399.249456 266.507409 
L 253.697836 266.507409 
" style="fill:none;stroke:#000000;stroke-linecap:square;"/>
   </g>
   <g id="line2d_190">
    <path clip-path="url(#paf9871ef30)" d="M 253.697836 266.507409 
L 253.697836 83.476339 
" style="fill:none;stroke:#000000;stroke-linecap:square;"/>
   </g>
   <g id="line2d_191">
    <path clip-path="url(#paf9871ef30)" d="M 253.697836 83.476339 
L 420.701903 83.476339 
" style="fill:none;stroke:#000000;stroke-linecap:square;"/>
   </g>
   <g id="line2d_192">
    <path clip-path="url(#paf9871ef30)" d="M 420.701903 83.476339 
L 420.701903 324.269298 
" style="fill:none;stroke:#000000;stroke-linecap:square;"/>
   </g>
   <g id="line2d_193">
    <path clip-path="url(#paf9871ef30)" d="M 420.701903 324.269298 
L 200.993831 324.269298 
" style="fill:none;stroke:#000000;stroke-linecap:square;"/>
   </g>
   <g id="line2d_194">
    <path clip-path="url(#paf9871ef30)" d="M 200.993831 324.269298 
L 200.993831 106.987529 
" style="fill:none;stroke:#000000;stroke-linecap:square;"/>
   </g>
   <g id="line2d_195">
    <path clip-path="url(#paf9871ef30)" d="M 200.993831 106.987529 
L 399.249456 106.987529 
" style="fill:none;stroke:#000000;stroke-linecap:square;"/>
   </g>
   <g id="line2d_196">
    <path clip-path="url(#paf9871ef30)" d="M 399.249456 106.987529 
L 399.249456 266.507409 
" style="fill:none;stroke:#000000;stroke-linecap:square;"/>
   </g>
   <g id="line2d_197">
    <path clip-path="url(#paf9871ef30)" d="M 399.249456 266.507409 
L 253.697836 266.507409 
" style="fill:none;stroke:#000000;stroke-linecap:square;"/>
   </g>
   <g id="line2d_198">
    <path clip-path="url(#paf9871ef30)" d="M 253.697836 266.507409 
L 253.697836 83.476339 
" style="fill:none;stroke:#000000;stroke-linecap:square;"/>
   </g>
   <g id="line2d_199">
    <path clip-path="url(#paf9871ef30)" d="M 253.697836 83.476339 
L 420.701903 83.476339 
" style="fill:none;stroke:#000000;stroke-linecap:square;"/>
   </g>
   <g id="line2d_200">
    <path clip-path="url(#paf9871ef30)" d="M 420.701903 83.476339 
L 420.701903 324.269298 
" style="fill:none;stroke:#000000;stroke-linecap:square;"/>
   </g>
   <g id="line2d_201">
    <path clip-path="url(#paf9871ef30)" d="M 420.701903 324.269298 
L 200.993831 324.269298 
" style="fill:none;stroke:#000000;stroke-linecap:square;"/>
   </g>
   <g id="line2d_202">
    <path clip-path="url(#paf9871ef30)" d="M 200.993831 324.269298 
L 200.993831 106.987529 
" style="fill:none;stroke:#000000;stroke-linecap:square;"/>
   </g>
   <g id="line2d_203">
    <path clip-path="url(#paf9871ef30)" d="M 200.993831 106.987529 
L 399.249456 106.987529 
" style="fill:none;stroke:#000000;stroke-linecap:square;"/>
   </g>
   <g id="line2d_204">
    <path clip-path="url(#paf9871ef30)" d="M 399.249456 106.987529 
L 399.249456 266.507409 
" style="fill:none;stroke:#000000;stroke-linecap:square;"/>
   </g>
   <g id="line2d_205">
    <path clip-path="url(#paf9871ef30)" d="M 399.249456 266.507409 
L 253.697836 266.507409 
" style="fill:none;stroke:#000000;stroke-linecap:square;"/>
   </g>
   <g id="line2d_206">
    <path clip-path="url(#paf9871ef30)" d="M 253.697836 266.507409 
L 253.697836 83.476339 
" style="fill:none;stroke:#000000;stroke-linecap:square;"/>
   </g>
   <g id="line2d_207">
    <path clip-path="url(#paf9871ef30)" d="M 253.697836 83.476339 
L 420.701903 83.476339 
" style="fill:none;stroke:#000000;stroke-linecap:square;"/>
   </g>
   <g id="line2d_208">
    <path clip-path="url(#paf9871ef30)" d="M 420.701903 83.476339 
L 420.701903 324.269298 
" style="fill:none;stroke:#000000;stroke-linecap:square;"/>
   </g>
   <g id="line2d_209">
    <path clip-path="url(#paf9871ef30)" d="M 420.701903 324.269298 
L 200.993831 324.269298 
" style="fill:none;stroke:#000000;stroke-linecap:square;"/>
   </g>
   <g id="line2d_210">
    <path clip-path="url(#paf9871ef30)" d="M 200.993831 324.269298 
L 200.993831 106.987529 
" style="fill:none;stroke:#000000;stroke-linecap:square;"/>
   </g>
   <g id="line2d_211">
    <path clip-path="url(#paf9871ef30)" d="M 200.993831 106.987529 
L 399.249456 106.987529 
" style="fill:none;stroke:#000000;stroke-linecap:square;"/>
   </g>
   <g id="patch_3">
    <path d="M 30.103125 511.56 
L 30.103125 22.32 
" style="fill:none;stroke:#000000;stroke-linecap:square;stroke-linejoin:miter;stroke-width:0.8;"/>
   </g>
   <g id="patch_4">
    <path d="M 476.503125 511.56 
L 476.503125 22.32 
" style="fill:none;stroke:#000000;stroke-linecap:square;stroke-linejoin:miter;stroke-width:0.8;"/>
   </g>
   <g id="patch_5">
    <path d="M 30.103125 511.56 
L 476.503125 511.56 
" style="fill:none;stroke:#000000;stroke-linecap:square;stroke-linejoin:miter;stroke-width:0.8;"/>
   </g>
   <g id="patch_6">
    <path d="M 30.103125 22.32 
L 476.503125 22.32 
" style="fill:none;stroke:#000000;stroke-linecap:square;stroke-linejoin:miter;stroke-width:0.8;"/>
   </g>
   <g id="text_13">
    <!-- Iteration plot for $f(x) = rx(1-x)$ -->
    <defs>
     <path d="M 9.8125 72.90625 
L 19.671875 72.90625 
L 19.671875 0 
L 9.8125 0 
z
" id="DejaVuSans-73"/>
     <path d="M 18.3125 70.21875 
L 18.3125 54.6875 
L 36.8125 54.6875 
L 36.8125 47.703125 
L 18.3125 47.703125 
L 18.3125 18.015625 
Q 18.3125 11.328125 20.140625 9.421875 
Q 21.96875 7.515625 27.59375 7.515625 
L 36.8125 7.515625 
L 36.8125 0 
L 27.59375 0 
Q 17.1875 0 13.234375 3.875 
Q 9.28125 7.765625 9.28125 18.015625 
L 9.28125 47.703125 
L 2.6875 47.703125 
L 2.6875 54.6875 
L 9.28125 54.6875 
L 9.28125 70.21875 
z
" id="DejaVuSans-116"/>
     <path d="M 56.203125 29.59375 
L 56.203125 25.203125 
L 14.890625 25.203125 
Q 15.484375 15.921875 20.484375 11.0625 
Q 25.484375 6.203125 34.421875 6.203125 
Q 39.59375 6.203125 44.453125 7.46875 
Q 49.3125 8.734375 54.109375 11.28125 
L 54.109375 2.78125 
Q 49.265625 0.734375 44.1875 -0.34375 
Q 39.109375 -1.421875 33.890625 -1.421875 
Q 20.796875 -1.421875 13.15625 6.1875 
Q 5.515625 13.8125 5.515625 26.8125 
Q 5.515625 40.234375 12.765625 48.109375 
Q 20.015625 56 32.328125 56 
Q 43.359375 56 49.78125 48.890625 
Q 56.203125 41.796875 56.203125 29.59375 
z
M 47.21875 32.234375 
Q 47.125 39.59375 43.09375 43.984375 
Q 39.0625 48.390625 32.421875 48.390625 
Q 24.90625 48.390625 20.390625 44.140625 
Q 15.875 39.890625 15.1875 32.171875 
z
" id="DejaVuSans-101"/>
     <path d="M 41.109375 46.296875 
Q 39.59375 47.171875 37.8125 47.578125 
Q 36.03125 48 33.890625 48 
Q 26.265625 48 22.1875 43.046875 
Q 18.109375 38.09375 18.109375 28.8125 
L 18.109375 0 
L 9.078125 0 
L 9.078125 54.6875 
L 18.109375 54.6875 
L 18.109375 46.1875 
Q 20.953125 51.171875 25.484375 53.578125 
Q 30.03125 56 36.53125 56 
Q 37.453125 56 38.578125 55.875 
Q 39.703125 55.765625 41.0625 55.515625 
z
" id="DejaVuSans-114"/>
     <path d="M 34.28125 27.484375 
Q 23.390625 27.484375 19.1875 25 
Q 14.984375 22.515625 14.984375 16.5 
Q 14.984375 11.71875 18.140625 8.90625 
Q 21.296875 6.109375 26.703125 6.109375 
Q 34.1875 6.109375 38.703125 11.40625 
Q 43.21875 16.703125 43.21875 25.484375 
L 43.21875 27.484375 
z
M 52.203125 31.203125 
L 52.203125 0 
L 43.21875 0 
L 43.21875 8.296875 
Q 40.140625 3.328125 35.546875 0.953125 
Q 30.953125 -1.421875 24.3125 -1.421875 
Q 15.921875 -1.421875 10.953125 3.296875 
Q 6 8.015625 6 15.921875 
Q 6 25.140625 12.171875 29.828125 
Q 18.359375 34.515625 30.609375 34.515625 
L 43.21875 34.515625 
L 43.21875 35.40625 
Q 43.21875 41.609375 39.140625 45 
Q 35.0625 48.390625 27.6875 48.390625 
Q 23 48.390625 18.546875 47.265625 
Q 14.109375 46.140625 10.015625 43.890625 
L 10.015625 52.203125 
Q 14.9375 54.109375 19.578125 55.046875 
Q 24.21875 56 28.609375 56 
Q 40.484375 56 46.34375 49.84375 
Q 52.203125 43.703125 52.203125 31.203125 
z
" id="DejaVuSans-97"/>
     <path d="M 9.421875 54.6875 
L 18.40625 54.6875 
L 18.40625 0 
L 9.421875 0 
z
M 9.421875 75.984375 
L 18.40625 75.984375 
L 18.40625 64.59375 
L 9.421875 64.59375 
z
" id="DejaVuSans-105"/>
     <path d="M 30.609375 48.390625 
Q 23.390625 48.390625 19.1875 42.75 
Q 14.984375 37.109375 14.984375 27.296875 
Q 14.984375 17.484375 19.15625 11.84375 
Q 23.34375 6.203125 30.609375 6.203125 
Q 37.796875 6.203125 41.984375 11.859375 
Q 46.1875 17.53125 46.1875 27.296875 
Q 46.1875 37.015625 41.984375 42.703125 
Q 37.796875 48.390625 30.609375 48.390625 
z
M 30.609375 56 
Q 42.328125 56 49.015625 48.375 
Q 55.71875 40.765625 55.71875 27.296875 
Q 55.71875 13.875 49.015625 6.21875 
Q 42.328125 -1.421875 30.609375 -1.421875 
Q 18.84375 -1.421875 12.171875 6.21875 
Q 5.515625 13.875 5.515625 27.296875 
Q 5.515625 40.765625 12.171875 48.375 
Q 18.84375 56 30.609375 56 
z
" id="DejaVuSans-111"/>
     <path d="M 54.890625 33.015625 
L 54.890625 0 
L 45.90625 0 
L 45.90625 32.71875 
Q 45.90625 40.484375 42.875 44.328125 
Q 39.84375 48.1875 33.796875 48.1875 
Q 26.515625 48.1875 22.3125 43.546875 
Q 18.109375 38.921875 18.109375 30.90625 
L 18.109375 0 
L 9.078125 0 
L 9.078125 54.6875 
L 18.109375 54.6875 
L 18.109375 46.1875 
Q 21.34375 51.125 25.703125 53.5625 
Q 30.078125 56 35.796875 56 
Q 45.21875 56 50.046875 50.171875 
Q 54.890625 44.34375 54.890625 33.015625 
z
" id="DejaVuSans-110"/>
     <path id="DejaVuSans-32"/>
     <path d="M 18.109375 8.203125 
L 18.109375 -20.796875 
L 9.078125 -20.796875 
L 9.078125 54.6875 
L 18.109375 54.6875 
L 18.109375 46.390625 
Q 20.953125 51.265625 25.265625 53.625 
Q 29.59375 56 35.59375 56 
Q 45.5625 56 51.78125 48.09375 
Q 58.015625 40.1875 58.015625 27.296875 
Q 58.015625 14.40625 51.78125 6.484375 
Q 45.5625 -1.421875 35.59375 -1.421875 
Q 29.59375 -1.421875 25.265625 0.953125 
Q 20.953125 3.328125 18.109375 8.203125 
z
M 48.6875 27.296875 
Q 48.6875 37.203125 44.609375 42.84375 
Q 40.53125 48.484375 33.40625 48.484375 
Q 26.265625 48.484375 22.1875 42.84375 
Q 18.109375 37.203125 18.109375 27.296875 
Q 18.109375 17.390625 22.1875 11.75 
Q 26.265625 6.109375 33.40625 6.109375 
Q 40.53125 6.109375 44.609375 11.75 
Q 48.6875 17.390625 48.6875 27.296875 
z
" id="DejaVuSans-112"/>
     <path d="M 9.421875 75.984375 
L 18.40625 75.984375 
L 18.40625 0 
L 9.421875 0 
z
" id="DejaVuSans-108"/>
     <path d="M 37.109375 75.984375 
L 37.109375 68.5 
L 28.515625 68.5 
Q 23.6875 68.5 21.796875 66.546875 
Q 19.921875 64.59375 19.921875 59.515625 
L 19.921875 54.6875 
L 34.71875 54.6875 
L 34.71875 47.703125 
L 19.921875 47.703125 
L 19.921875 0 
L 10.890625 0 
L 10.890625 47.703125 
L 2.296875 47.703125 
L 2.296875 54.6875 
L 10.890625 54.6875 
L 10.890625 58.5 
Q 10.890625 67.625 15.140625 71.796875 
Q 19.390625 75.984375 28.609375 75.984375 
z
" id="DejaVuSans-102"/>
     <path d="M 47.796875 75.984375 
L 46.390625 68.5 
L 37.796875 68.5 
Q 32.90625 68.5 30.6875 66.578125 
Q 28.46875 64.65625 27.390625 59.515625 
L 26.421875 54.6875 
L 41.21875 54.6875 
L 39.890625 47.703125 
L 25.09375 47.703125 
L 15.828125 0 
L 6.78125 0 
L 16.109375 47.703125 
L 7.515625 47.703125 
L 8.796875 54.6875 
L 17.390625 54.6875 
L 18.109375 58.5 
Q 19.96875 68.171875 24.625 72.078125 
Q 29.296875 75.984375 39.3125 75.984375 
z
" id="DejaVuSans-Oblique-102"/>
     <path d="M 31 75.875 
Q 24.46875 64.65625 21.28125 53.65625 
Q 18.109375 42.671875 18.109375 31.390625 
Q 18.109375 20.125 21.3125 9.0625 
Q 24.515625 -2 31 -13.1875 
L 23.1875 -13.1875 
Q 15.875 -1.703125 12.234375 9.375 
Q 8.59375 20.453125 8.59375 31.390625 
Q 8.59375 42.28125 12.203125 53.3125 
Q 15.828125 64.359375 23.1875 75.875 
z
" id="DejaVuSans-40"/>
     <path d="M 60.015625 54.6875 
L 34.90625 27.875 
L 50.296875 0 
L 39.984375 0 
L 28.421875 21.6875 
L 8.296875 0 
L -2.59375 0 
L 24.3125 28.8125 
L 10.015625 54.6875 
L 20.3125 54.6875 
L 30.8125 34.90625 
L 49.125 54.6875 
z
" id="DejaVuSans-Oblique-120"/>
     <path d="M 8.015625 75.875 
L 15.828125 75.875 
Q 23.140625 64.359375 26.78125 53.3125 
Q 30.421875 42.28125 30.421875 31.390625 
Q 30.421875 20.453125 26.78125 9.375 
Q 23.140625 -1.703125 15.828125 -13.1875 
L 8.015625 -13.1875 
Q 14.5 -2 17.703125 9.0625 
Q 20.90625 20.125 20.90625 31.390625 
Q 20.90625 42.671875 17.703125 53.65625 
Q 14.5 64.65625 8.015625 75.875 
z
" id="DejaVuSans-41"/>
     <path d="M 10.59375 45.40625 
L 73.1875 45.40625 
L 73.1875 37.203125 
L 10.59375 37.203125 
z
M 10.59375 25.484375 
L 73.1875 25.484375 
L 73.1875 17.1875 
L 10.59375 17.1875 
z
" id="DejaVuSans-61"/>
     <path d="M 44.578125 46.390625 
Q 43.21875 47.125 41.453125 47.515625 
Q 39.703125 47.90625 37.703125 47.90625 
Q 30.515625 47.90625 25.140625 42.453125 
Q 19.78125 37.015625 18.015625 27.875 
L 12.5 0 
L 3.515625 0 
L 14.203125 54.6875 
L 23.1875 54.6875 
L 21.484375 46.1875 
Q 25.046875 50.921875 30 53.453125 
Q 34.96875 56 40.578125 56 
Q 42.046875 56 43.453125 55.828125 
Q 44.875 55.671875 46.296875 55.28125 
z
" id="DejaVuSans-Oblique-114"/>
     <path d="M 10.59375 35.5 
L 73.1875 35.5 
L 73.1875 27.203125 
L 10.59375 27.203125 
z
" id="DejaVuSans-8722"/>
    </defs>
    <g transform="translate(159.223125 16.32)scale(0.12 -0.12)">
     <use transform="translate(0 0.015625)" xlink:href="#DejaVuSans-73"/>
     <use transform="translate(29.492188 0.015625)" xlink:href="#DejaVuSans-116"/>
     <use transform="translate(68.701172 0.015625)" xlink:href="#DejaVuSans-101"/>
     <use transform="translate(130.224609 0.015625)" xlink:href="#DejaVuSans-114"/>
     <use transform="translate(171.337891 0.015625)" xlink:href="#DejaVuSans-97"/>
     <use transform="translate(232.617188 0.015625)" xlink:href="#DejaVuSans-116"/>
     <use transform="translate(271.826172 0.015625)" xlink:href="#DejaVuSans-105"/>
     <use transform="translate(299.609375 0.015625)" xlink:href="#DejaVuSans-111"/>
     <use transform="translate(360.791016 0.015625)" xlink:href="#DejaVuSans-110"/>
     <use transform="translate(424.169922 0.015625)" xlink:href="#DejaVuSans-32"/>
     <use transform="translate(455.957031 0.015625)" xlink:href="#DejaVuSans-112"/>
     <use transform="translate(519.433594 0.015625)" xlink:href="#DejaVuSans-108"/>
     <use transform="translate(547.216797 0.015625)" xlink:href="#DejaVuSans-111"/>
     <use transform="translate(608.398438 0.015625)" xlink:href="#DejaVuSans-116"/>
     <use transform="translate(647.607422 0.015625)" xlink:href="#DejaVuSans-32"/>
     <use transform="translate(679.394531 0.015625)" xlink:href="#DejaVuSans-102"/>
     <use transform="translate(714.599609 0.015625)" xlink:href="#DejaVuSans-111"/>
     <use transform="translate(775.78125 0.015625)" xlink:href="#DejaVuSans-114"/>
     <use transform="translate(816.894531 0.015625)" xlink:href="#DejaVuSans-32"/>
     <use transform="translate(848.681641 0.015625)" xlink:href="#DejaVuSans-Oblique-102"/>
     <use transform="translate(883.886719 0.015625)" xlink:href="#DejaVuSans-40"/>
     <use transform="translate(922.900391 0.015625)" xlink:href="#DejaVuSans-Oblique-120"/>
     <use transform="translate(982.080078 0.015625)" xlink:href="#DejaVuSans-41"/>
     <use transform="translate(1040.576172 0.015625)" xlink:href="#DejaVuSans-61"/>
     <use transform="translate(1143.847656 0.015625)" xlink:href="#DejaVuSans-Oblique-114"/>
     <use transform="translate(1184.960938 0.015625)" xlink:href="#DejaVuSans-Oblique-120"/>
     <use transform="translate(1244.140625 0.015625)" xlink:href="#DejaVuSans-40"/>
     <use transform="translate(1283.154297 0.015625)" xlink:href="#DejaVuSans-49"/>
     <use transform="translate(1366.259766 0.015625)" xlink:href="#DejaVuSans-8722"/>
     <use transform="translate(1469.53125 0.015625)" xlink:href="#DejaVuSans-Oblique-120"/>
     <use transform="translate(1528.710938 0.015625)" xlink:href="#DejaVuSans-41"/>
    </g>
   </g>
  </g>
 </g>
 <defs>
  <clipPath id="paf9871ef30">
   <rect height="489.24" width="446.4" x="30.103125" y="22.32"/>
  </clipPath>
 </defs>
</svg>
