<?xml version="1.0" encoding="utf-8" standalone="no"?>
<!DOCTYPE svg PUBLIC "-//W3C//DTD SVG 1.1//EN"
  "http://www.w3.org/Graphics/SVG/1.1/DTD/svg11.dtd">
<!-- Created with matplotlib (https://matplotlib.org/) -->
<svg height="252.317344pt" version="1.1" viewBox="0 0 366.0625 252.317344" width="366.0625pt" xmlns="http://www.w3.org/2000/svg" xmlns:xlink="http://www.w3.org/1999/xlink">
 <defs>
  <style type="text/css">
*{stroke-linecap:butt;stroke-linejoin:round;}
  </style>
 </defs>
 <g id="figure_1">
  <g id="patch_1">
   <path d="M 0 252.317344 
L 366.0625 252.317344 
L 366.0625 0 
L 0 0 
z
" style="fill:none;"/>
  </g>
  <g id="axes_1">
   <g id="patch_2">
    <path d="M 20.5625 228.439219 
L 355.3625 228.439219 
L 355.3625 10.999219 
L 20.5625 10.999219 
z
" style="fill:#ffffff;"/>
   </g>
   <g id="PathCollection_1">
    <defs>
     <path d="M -3 3 
L 3 -3 
M -3 -3 
L 3 3 
" id="ma9d980039b" style="stroke:#1f77b4;stroke-width:1.5;"/>
    </defs>
    <g clip-path="url(#pd0c505c2dc)">
     <use style="fill:#1f77b4;stroke:#1f77b4;stroke-width:1.5;" x="229.8125" xlink:href="#ma9d980039b" y="192.199219"/>
     <use style="fill:#1f77b4;stroke:#1f77b4;stroke-width:1.5;" x="271.6625" xlink:href="#ma9d980039b" y="119.719219"/>
     <use style="fill:#1f77b4;stroke:#1f77b4;stroke-width:1.5;" x="146.1125" xlink:href="#ma9d980039b" y="47.239219"/>
     <use style="fill:#1f77b4;stroke:#1f77b4;stroke-width:1.5;" x="62.4125" xlink:href="#ma9d980039b" y="83.479219"/>
     <use style="fill:#1f77b4;stroke:#1f77b4;stroke-width:1.5;" x="104.2625" xlink:href="#ma9d980039b" y="192.199219"/>
    </g>
   </g>
   <g id="PathCollection_2">
    <defs>
     <path d="M -3 3 
L 3 -3 
M -3 -3 
L 3 3 
" id="mda466a2d3d" style="stroke:#ff7f0e;stroke-width:1.5;"/>
    </defs>
    <g clip-path="url(#pd0c505c2dc)">
     <use style="fill:#ff7f0e;stroke:#ff7f0e;stroke-width:1.5;" x="166.619" xlink:href="#mda466a2d3d" y="122.256019"/>
    </g>
   </g>
   <g id="PathCollection_3">
    <defs>
     <path d="M -3 3 
L 3 -3 
M -3 -3 
L 3 3 
" id="medf0e1a950" style="stroke:#2ca02c;stroke-width:1.5;"/>
    </defs>
    <g clip-path="url(#pd0c505c2dc)">
     <use style="fill:#2ca02c;stroke:#2ca02c;stroke-width:1.5;" x="166.619" xlink:href="#medf0e1a950" y="122.256019"/>
    </g>
   </g>
   <g id="PathCollection_4">
    <defs>
     <path d="M -3 3 
L 3 -3 
M -3 -3 
L 3 3 
" id="mdd5bb7ccce" style="stroke:#d62728;stroke-width:1.5;"/>
    </defs>
    <g clip-path="url(#pd0c505c2dc)">
     <use style="fill:#d62728;stroke:#d62728;stroke-width:1.5;" x="166.619" xlink:href="#mdd5bb7ccce" y="122.256019"/>
    </g>
   </g>
   <g id="patch_3">
    <path clip-path="url(#pd0c505c2dc)" d="M 229.8125 189.481219 
L 230.85875 192.199219 
L 229.833425 192.199219 
L 229.833425 192.199219 
L 229.791575 192.199219 
L 229.791575 192.199219 
L 228.76625 192.199219 
z
" style="fill:#6495ed;stroke:#6495ed;stroke-linejoin:miter;"/>
   </g>
   <g id="patch_4">
    <path clip-path="url(#pd0c505c2dc)" d="M 273.066192 117.288166 
L 272.598294 120.124394 
L 271.681216 119.727322 
L 229.831216 192.207322 
L 229.793784 192.191115 
L 271.643784 119.711115 
L 270.726706 119.314043 
z
" style="fill:#6495ed;stroke:#6495ed;stroke-linejoin:miter;"/>
   </g>
   <g id="patch_5">
    <path clip-path="url(#pd0c505c2dc)" d="M 144.708808 44.808166 
L 147.048294 46.834043 
L 146.131216 47.231115 
L 229.831216 192.191115 
L 229.793784 192.207322 
L 146.093784 47.247322 
L 145.176706 47.644394 
z
" style="fill:#6495ed;stroke:#6495ed;stroke-linejoin:miter;"/>
   </g>
   <g id="patch_6">
    <path clip-path="url(#pd0c505c2dc)" d="M 59.9015 81.848419 
L 63.04025 82.754419 
L 62.425055 83.464723 
L 229.825055 192.184723 
L 229.799945 192.213715 
L 62.399945 83.493715 
L 61.78475 84.204019 
z
" style="fill:#6495ed;stroke:#6495ed;stroke-linejoin:miter;"/>
   </g>
   <g id="patch_7">
    <path clip-path="url(#pd0c505c2dc)" d="M 101.12375 192.199219 
L 104.2625 191.293219 
L 104.2625 192.181099 
L 229.8125 192.181099 
L 229.8125 192.217339 
L 104.2625 192.217339 
L 104.2625 193.105219 
z
" style="fill:#6495ed;stroke:#6495ed;stroke-linejoin:miter;"/>
   </g>
   <g id="patch_8">
    <path clip-path="url(#pd0c505c2dc)" d="M 166.619 220.604478 
C 196.738893 220.604478 225.629209 210.241863 246.927189 191.798881 
C 268.22517 173.355898 280.19193 148.338335 280.19193 122.256019 
C 280.19193 96.173703 268.22517 71.156139 246.927189 52.713157 
C 225.629209 34.270174 196.738893 23.90756 166.619 23.90756 
C 136.499107 23.90756 107.608791 34.270174 86.310811 52.713157 
C 65.01283 71.156139 53.04607 96.173703 53.04607 122.256019 
C 53.04607 148.338335 65.01283 173.355898 86.310811 191.798881 
C 107.608791 210.241863 136.499107 220.604478 166.619 220.604478 
z
" style="fill:none;stroke:#000000;stroke-dasharray:1,1.65;stroke-dashoffset:0;stroke-linejoin:miter;"/>
   </g>
   <g id="patch_9">
    <path clip-path="url(#pd0c505c2dc)" d="M 166.619 210.948898 
C 193.781805 210.948898 219.835749 201.603656 239.042753 184.971355 
C 258.249757 168.339053 269.041654 145.777645 269.041654 122.256019 
C 269.041654 98.734392 258.249757 76.172984 239.042753 59.540683 
C 219.835749 42.908381 193.781805 33.56314 166.619 33.56314 
C 139.456195 33.56314 113.402251 42.908381 94.195247 59.540683 
C 74.988243 76.172984 64.196346 98.734392 64.196346 122.256019 
C 64.196346 145.777645 74.988243 168.339053 94.195247 184.971355 
C 113.402251 201.603656 139.456195 210.948898 166.619 210.948898 
z
" style="fill:none;stroke:#000000;stroke-dasharray:1,1.65;stroke-dashoffset:0;stroke-linejoin:miter;"/>
   </g>
   <g id="patch_10">
    <path clip-path="url(#pd0c505c2dc)" d="M 166.619 199.481947 
C 190.269973 199.481947 212.955447 191.344936 229.67921 176.862996 
C 246.402973 162.381056 255.799604 142.736574 255.799604 122.256019 
C 255.799604 101.775463 246.402973 82.130981 229.67921 67.649041 
C 212.955447 53.167102 190.269973 45.030091 166.619 45.030091 
C 142.968027 45.030091 120.282553 53.167102 103.55879 67.649041 
C 86.835027 82.130981 77.438396 101.775463 77.438396 122.256019 
C 77.438396 142.736574 86.835027 162.381056 103.55879 176.862996 
C 120.282553 191.344936 142.968027 199.481947 166.619 199.481947 
z
" style="fill:none;stroke:#000000;stroke-dasharray:1,1.65;stroke-dashoffset:0;stroke-linejoin:miter;"/>
   </g>
   <g id="matplotlib.axis_1">
    <g id="xtick_1">
     <g id="line2d_1">
      <defs>
       <path d="M 0 0 
L 0 3.5 
" id="m123f3483f1" style="stroke:#000000;stroke-width:0.8;"/>
      </defs>
      <g>
       <use style="stroke:#000000;stroke-width:0.8;" x="20.5625" xlink:href="#m123f3483f1" y="228.439219"/>
      </g>
     </g>
     <g id="text_1">
      <!-- −4 -->
      <defs>
       <path d="M 10.59375 35.5 
L 73.1875 35.5 
L 73.1875 27.203125 
L 10.59375 27.203125 
z
" id="DejaVuSans-8722"/>
       <path d="M 37.796875 64.3125 
L 12.890625 25.390625 
L 37.796875 25.390625 
z
M 35.203125 72.90625 
L 47.609375 72.90625 
L 47.609375 25.390625 
L 58.015625 25.390625 
L 58.015625 17.1875 
L 47.609375 17.1875 
L 47.609375 0 
L 37.796875 0 
L 37.796875 17.1875 
L 4.890625 17.1875 
L 4.890625 26.703125 
z
" id="DejaVuSans-52"/>
      </defs>
      <g transform="translate(13.191406 243.037656)scale(0.1 -0.1)">
       <use xlink:href="#DejaVuSans-8722"/>
       <use x="83.789062" xlink:href="#DejaVuSans-52"/>
      </g>
     </g>
    </g>
    <g id="xtick_2">
     <g id="line2d_2">
      <g>
       <use style="stroke:#000000;stroke-width:0.8;" x="62.4125" xlink:href="#m123f3483f1" y="228.439219"/>
      </g>
     </g>
     <g id="text_2">
      <!-- −3 -->
      <defs>
       <path d="M 40.578125 39.3125 
Q 47.65625 37.796875 51.625 33 
Q 55.609375 28.21875 55.609375 21.1875 
Q 55.609375 10.40625 48.1875 4.484375 
Q 40.765625 -1.421875 27.09375 -1.421875 
Q 22.515625 -1.421875 17.65625 -0.515625 
Q 12.796875 0.390625 7.625 2.203125 
L 7.625 11.71875 
Q 11.71875 9.328125 16.59375 8.109375 
Q 21.484375 6.890625 26.8125 6.890625 
Q 36.078125 6.890625 40.9375 10.546875 
Q 45.796875 14.203125 45.796875 21.1875 
Q 45.796875 27.640625 41.28125 31.265625 
Q 36.765625 34.90625 28.71875 34.90625 
L 20.21875 34.90625 
L 20.21875 43.015625 
L 29.109375 43.015625 
Q 36.375 43.015625 40.234375 45.921875 
Q 44.09375 48.828125 44.09375 54.296875 
Q 44.09375 59.90625 40.109375 62.90625 
Q 36.140625 65.921875 28.71875 65.921875 
Q 24.65625 65.921875 20.015625 65.03125 
Q 15.375 64.15625 9.8125 62.3125 
L 9.8125 71.09375 
Q 15.4375 72.65625 20.34375 73.4375 
Q 25.25 74.21875 29.59375 74.21875 
Q 40.828125 74.21875 47.359375 69.109375 
Q 53.90625 64.015625 53.90625 55.328125 
Q 53.90625 49.265625 50.4375 45.09375 
Q 46.96875 40.921875 40.578125 39.3125 
z
" id="DejaVuSans-51"/>
      </defs>
      <g transform="translate(55.041406 243.037656)scale(0.1 -0.1)">
       <use xlink:href="#DejaVuSans-8722"/>
       <use x="83.789062" xlink:href="#DejaVuSans-51"/>
      </g>
     </g>
    </g>
    <g id="xtick_3">
     <g id="line2d_3">
      <g>
       <use style="stroke:#000000;stroke-width:0.8;" x="104.2625" xlink:href="#m123f3483f1" y="228.439219"/>
      </g>
     </g>
     <g id="text_3">
      <!-- −2 -->
      <defs>
       <path d="M 19.1875 8.296875 
L 53.609375 8.296875 
L 53.609375 0 
L 7.328125 0 
L 7.328125 8.296875 
Q 12.9375 14.109375 22.625 23.890625 
Q 32.328125 33.6875 34.8125 36.53125 
Q 39.546875 41.84375 41.421875 45.53125 
Q 43.3125 49.21875 43.3125 52.78125 
Q 43.3125 58.59375 39.234375 62.25 
Q 35.15625 65.921875 28.609375 65.921875 
Q 23.96875 65.921875 18.8125 64.3125 
Q 13.671875 62.703125 7.8125 59.421875 
L 7.8125 69.390625 
Q 13.765625 71.78125 18.9375 73 
Q 24.125 74.21875 28.421875 74.21875 
Q 39.75 74.21875 46.484375 68.546875 
Q 53.21875 62.890625 53.21875 53.421875 
Q 53.21875 48.921875 51.53125 44.890625 
Q 49.859375 40.875 45.40625 35.40625 
Q 44.1875 33.984375 37.640625 27.21875 
Q 31.109375 20.453125 19.1875 8.296875 
z
" id="DejaVuSans-50"/>
      </defs>
      <g transform="translate(96.891406 243.037656)scale(0.1 -0.1)">
       <use xlink:href="#DejaVuSans-8722"/>
       <use x="83.789062" xlink:href="#DejaVuSans-50"/>
      </g>
     </g>
    </g>
    <g id="xtick_4">
     <g id="line2d_4">
      <g>
       <use style="stroke:#000000;stroke-width:0.8;" x="146.1125" xlink:href="#m123f3483f1" y="228.439219"/>
      </g>
     </g>
     <g id="text_4">
      <!-- −1 -->
      <defs>
       <path d="M 12.40625 8.296875 
L 28.515625 8.296875 
L 28.515625 63.921875 
L 10.984375 60.40625 
L 10.984375 69.390625 
L 28.421875 72.90625 
L 38.28125 72.90625 
L 38.28125 8.296875 
L 54.390625 8.296875 
L 54.390625 0 
L 12.40625 0 
z
" id="DejaVuSans-49"/>
      </defs>
      <g transform="translate(138.741406 243.037656)scale(0.1 -0.1)">
       <use xlink:href="#DejaVuSans-8722"/>
       <use x="83.789062" xlink:href="#DejaVuSans-49"/>
      </g>
     </g>
    </g>
    <g id="xtick_5">
     <g id="line2d_5">
      <g>
       <use style="stroke:#000000;stroke-width:0.8;" x="187.9625" xlink:href="#m123f3483f1" y="228.439219"/>
      </g>
     </g>
     <g id="text_5">
      <!-- 0 -->
      <defs>
       <path d="M 31.78125 66.40625 
Q 24.171875 66.40625 20.328125 58.90625 
Q 16.5 51.421875 16.5 36.375 
Q 16.5 21.390625 20.328125 13.890625 
Q 24.171875 6.390625 31.78125 6.390625 
Q 39.453125 6.390625 43.28125 13.890625 
Q 47.125 21.390625 47.125 36.375 
Q 47.125 51.421875 43.28125 58.90625 
Q 39.453125 66.40625 31.78125 66.40625 
z
M 31.78125 74.21875 
Q 44.046875 74.21875 50.515625 64.515625 
Q 56.984375 54.828125 56.984375 36.375 
Q 56.984375 17.96875 50.515625 8.265625 
Q 44.046875 -1.421875 31.78125 -1.421875 
Q 19.53125 -1.421875 13.0625 8.265625 
Q 6.59375 17.96875 6.59375 36.375 
Q 6.59375 54.828125 13.0625 64.515625 
Q 19.53125 74.21875 31.78125 74.21875 
z
" id="DejaVuSans-48"/>
      </defs>
      <g transform="translate(184.78125 243.037656)scale(0.1 -0.1)">
       <use xlink:href="#DejaVuSans-48"/>
      </g>
     </g>
    </g>
    <g id="xtick_6">
     <g id="line2d_6">
      <g>
       <use style="stroke:#000000;stroke-width:0.8;" x="229.8125" xlink:href="#m123f3483f1" y="228.439219"/>
      </g>
     </g>
     <g id="text_6">
      <!-- 1 -->
      <g transform="translate(226.63125 243.037656)scale(0.1 -0.1)">
       <use xlink:href="#DejaVuSans-49"/>
      </g>
     </g>
    </g>
    <g id="xtick_7">
     <g id="line2d_7">
      <g>
       <use style="stroke:#000000;stroke-width:0.8;" x="271.6625" xlink:href="#m123f3483f1" y="228.439219"/>
      </g>
     </g>
     <g id="text_7">
      <!-- 2 -->
      <g transform="translate(268.48125 243.037656)scale(0.1 -0.1)">
       <use xlink:href="#DejaVuSans-50"/>
      </g>
     </g>
    </g>
    <g id="xtick_8">
     <g id="line2d_8">
      <g>
       <use style="stroke:#000000;stroke-width:0.8;" x="313.5125" xlink:href="#m123f3483f1" y="228.439219"/>
      </g>
     </g>
     <g id="text_8">
      <!-- 3 -->
      <g transform="translate(310.33125 243.037656)scale(0.1 -0.1)">
       <use xlink:href="#DejaVuSans-51"/>
      </g>
     </g>
    </g>
    <g id="xtick_9">
     <g id="line2d_9">
      <g>
       <use style="stroke:#000000;stroke-width:0.8;" x="355.3625" xlink:href="#m123f3483f1" y="228.439219"/>
      </g>
     </g>
     <g id="text_9">
      <!-- 4 -->
      <g transform="translate(352.18125 243.037656)scale(0.1 -0.1)">
       <use xlink:href="#DejaVuSans-52"/>
      </g>
     </g>
    </g>
   </g>
   <g id="matplotlib.axis_2">
    <g id="ytick_1">
     <g id="line2d_10">
      <defs>
       <path d="M 0 0 
L -3.5 0 
" id="m5e1daae174" style="stroke:#000000;stroke-width:0.8;"/>
      </defs>
      <g>
       <use style="stroke:#000000;stroke-width:0.8;" x="20.5625" xlink:href="#m5e1daae174" y="228.439219"/>
      </g>
     </g>
     <g id="text_10">
      <!-- 0 -->
      <g transform="translate(7.2 232.238437)scale(0.1 -0.1)">
       <use xlink:href="#DejaVuSans-48"/>
      </g>
     </g>
    </g>
    <g id="ytick_2">
     <g id="line2d_11">
      <g>
       <use style="stroke:#000000;stroke-width:0.8;" x="20.5625" xlink:href="#m5e1daae174" y="192.199219"/>
      </g>
     </g>
     <g id="text_11">
      <!-- 1 -->
      <g transform="translate(7.2 195.998437)scale(0.1 -0.1)">
       <use xlink:href="#DejaVuSans-49"/>
      </g>
     </g>
    </g>
    <g id="ytick_3">
     <g id="line2d_12">
      <g>
       <use style="stroke:#000000;stroke-width:0.8;" x="20.5625" xlink:href="#m5e1daae174" y="155.959219"/>
      </g>
     </g>
     <g id="text_12">
      <!-- 2 -->
      <g transform="translate(7.2 159.758437)scale(0.1 -0.1)">
       <use xlink:href="#DejaVuSans-50"/>
      </g>
     </g>
    </g>
    <g id="ytick_4">
     <g id="line2d_13">
      <g>
       <use style="stroke:#000000;stroke-width:0.8;" x="20.5625" xlink:href="#m5e1daae174" y="119.719219"/>
      </g>
     </g>
     <g id="text_13">
      <!-- 3 -->
      <g transform="translate(7.2 123.518437)scale(0.1 -0.1)">
       <use xlink:href="#DejaVuSans-51"/>
      </g>
     </g>
    </g>
    <g id="ytick_5">
     <g id="line2d_14">
      <g>
       <use style="stroke:#000000;stroke-width:0.8;" x="20.5625" xlink:href="#m5e1daae174" y="83.479219"/>
      </g>
     </g>
     <g id="text_14">
      <!-- 4 -->
      <g transform="translate(7.2 87.278437)scale(0.1 -0.1)">
       <use xlink:href="#DejaVuSans-52"/>
      </g>
     </g>
    </g>
    <g id="ytick_6">
     <g id="line2d_15">
      <g>
       <use style="stroke:#000000;stroke-width:0.8;" x="20.5625" xlink:href="#m5e1daae174" y="47.239219"/>
      </g>
     </g>
     <g id="text_15">
      <!-- 5 -->
      <defs>
       <path d="M 10.796875 72.90625 
L 49.515625 72.90625 
L 49.515625 64.59375 
L 19.828125 64.59375 
L 19.828125 46.734375 
Q 21.96875 47.46875 24.109375 47.828125 
Q 26.265625 48.1875 28.421875 48.1875 
Q 40.625 48.1875 47.75 41.5 
Q 54.890625 34.8125 54.890625 23.390625 
Q 54.890625 11.625 47.5625 5.09375 
Q 40.234375 -1.421875 26.90625 -1.421875 
Q 22.3125 -1.421875 17.546875 -0.640625 
Q 12.796875 0.140625 7.71875 1.703125 
L 7.71875 11.625 
Q 12.109375 9.234375 16.796875 8.0625 
Q 21.484375 6.890625 26.703125 6.890625 
Q 35.15625 6.890625 40.078125 11.328125 
Q 45.015625 15.765625 45.015625 23.390625 
Q 45.015625 31 40.078125 35.4375 
Q 35.15625 39.890625 26.703125 39.890625 
Q 22.75 39.890625 18.8125 39.015625 
Q 14.890625 38.140625 10.796875 36.28125 
z
" id="DejaVuSans-53"/>
      </defs>
      <g transform="translate(7.2 51.038437)scale(0.1 -0.1)">
       <use xlink:href="#DejaVuSans-53"/>
      </g>
     </g>
    </g>
    <g id="ytick_7">
     <g id="line2d_16">
      <g>
       <use style="stroke:#000000;stroke-width:0.8;" x="20.5625" xlink:href="#m5e1daae174" y="10.999219"/>
      </g>
     </g>
     <g id="text_16">
      <!-- 6 -->
      <defs>
       <path d="M 33.015625 40.375 
Q 26.375 40.375 22.484375 35.828125 
Q 18.609375 31.296875 18.609375 23.390625 
Q 18.609375 15.53125 22.484375 10.953125 
Q 26.375 6.390625 33.015625 6.390625 
Q 39.65625 6.390625 43.53125 10.953125 
Q 47.40625 15.53125 47.40625 23.390625 
Q 47.40625 31.296875 43.53125 35.828125 
Q 39.65625 40.375 33.015625 40.375 
z
M 52.59375 71.296875 
L 52.59375 62.3125 
Q 48.875 64.0625 45.09375 64.984375 
Q 41.3125 65.921875 37.59375 65.921875 
Q 27.828125 65.921875 22.671875 59.328125 
Q 17.53125 52.734375 16.796875 39.40625 
Q 19.671875 43.65625 24.015625 45.921875 
Q 28.375 48.1875 33.59375 48.1875 
Q 44.578125 48.1875 50.953125 41.515625 
Q 57.328125 34.859375 57.328125 23.390625 
Q 57.328125 12.15625 50.6875 5.359375 
Q 44.046875 -1.421875 33.015625 -1.421875 
Q 20.359375 -1.421875 13.671875 8.265625 
Q 6.984375 17.96875 6.984375 36.375 
Q 6.984375 53.65625 15.1875 63.9375 
Q 23.390625 74.21875 37.203125 74.21875 
Q 40.921875 74.21875 44.703125 73.484375 
Q 48.484375 72.75 52.59375 71.296875 
z
" id="DejaVuSans-54"/>
      </defs>
      <g transform="translate(7.2 14.798437)scale(0.1 -0.1)">
       <use xlink:href="#DejaVuSans-54"/>
      </g>
     </g>
    </g>
   </g>
   <g id="patch_11">
    <path d="M 20.5625 228.439219 
L 20.5625 10.999219 
" style="fill:none;stroke:#000000;stroke-linecap:square;stroke-linejoin:miter;stroke-width:0.8;"/>
   </g>
   <g id="patch_12">
    <path d="M 355.3625 228.439219 
L 355.3625 10.999219 
" style="fill:none;stroke:#000000;stroke-linecap:square;stroke-linejoin:miter;stroke-width:0.8;"/>
   </g>
   <g id="patch_13">
    <path d="M 20.5625 228.439219 
L 355.3625 228.439219 
" style="fill:none;stroke:#000000;stroke-linecap:square;stroke-linejoin:miter;stroke-width:0.8;"/>
   </g>
   <g id="patch_14">
    <path d="M 20.5625 10.999219 
L 355.3625 10.999219 
" style="fill:none;stroke:#000000;stroke-linecap:square;stroke-linejoin:miter;stroke-width:0.8;"/>
   </g>
   <g id="text_17">
    <!-- &lt;(1, 1)&gt; -->
    <defs>
     <path d="M 73.1875 49.21875 
L 22.796875 31.296875 
L 73.1875 13.484375 
L 73.1875 4.59375 
L 10.59375 27.296875 
L 10.59375 35.40625 
L 73.1875 58.109375 
z
" id="DejaVuSans-60"/>
     <path d="M 31 75.875 
Q 24.46875 64.65625 21.28125 53.65625 
Q 18.109375 42.671875 18.109375 31.390625 
Q 18.109375 20.125 21.3125 9.0625 
Q 24.515625 -2 31 -13.1875 
L 23.1875 -13.1875 
Q 15.875 -1.703125 12.234375 9.375 
Q 8.59375 20.453125 8.59375 31.390625 
Q 8.59375 42.28125 12.203125 53.3125 
Q 15.828125 64.359375 23.1875 75.875 
z
" id="DejaVuSans-40"/>
     <path d="M 11.71875 12.40625 
L 22.015625 12.40625 
L 22.015625 4 
L 14.015625 -11.625 
L 7.71875 -11.625 
L 11.71875 4 
z
" id="DejaVuSans-44"/>
     <path id="DejaVuSans-32"/>
     <path d="M 8.015625 75.875 
L 15.828125 75.875 
Q 23.140625 64.359375 26.78125 53.3125 
Q 30.421875 42.28125 30.421875 31.390625 
Q 30.421875 20.453125 26.78125 9.375 
Q 23.140625 -1.703125 15.828125 -13.1875 
L 8.015625 -13.1875 
Q 14.5 -2 17.703125 9.0625 
Q 20.90625 20.125 20.90625 31.390625 
Q 20.90625 42.671875 17.703125 53.65625 
Q 14.5 64.65625 8.015625 75.875 
z
" id="DejaVuSans-41"/>
     <path d="M 10.59375 49.21875 
L 10.59375 58.109375 
L 73.1875 35.40625 
L 73.1875 27.296875 
L 10.59375 4.59375 
L 10.59375 13.484375 
L 60.890625 31.296875 
z
" id="DejaVuSans-62"/>
    </defs>
    <g style="opacity:0.5;" transform="translate(229.8125 192.199219)scale(0.1 -0.1)">
     <use xlink:href="#DejaVuSans-60"/>
     <use x="83.789062" xlink:href="#DejaVuSans-40"/>
     <use x="122.802734" xlink:href="#DejaVuSans-49"/>
     <use x="186.425781" xlink:href="#DejaVuSans-44"/>
     <use x="218.212891" xlink:href="#DejaVuSans-32"/>
     <use x="250" xlink:href="#DejaVuSans-49"/>
     <use x="313.623047" xlink:href="#DejaVuSans-41"/>
     <use x="352.636719" xlink:href="#DejaVuSans-62"/>
    </g>
   </g>
   <g id="text_18">
    <!-- &lt;(2, 3)&gt; -->
    <g style="opacity:0.5;" transform="translate(271.6625 119.719219)scale(0.1 -0.1)">
     <use xlink:href="#DejaVuSans-60"/>
     <use x="83.789062" xlink:href="#DejaVuSans-40"/>
     <use x="122.802734" xlink:href="#DejaVuSans-50"/>
     <use x="186.425781" xlink:href="#DejaVuSans-44"/>
     <use x="218.212891" xlink:href="#DejaVuSans-32"/>
     <use x="250" xlink:href="#DejaVuSans-51"/>
     <use x="313.623047" xlink:href="#DejaVuSans-41"/>
     <use x="352.636719" xlink:href="#DejaVuSans-62"/>
    </g>
   </g>
   <g id="text_19">
    <!-- &lt;(-1, 5)&gt; -->
    <defs>
     <path d="M 4.890625 31.390625 
L 31.203125 31.390625 
L 31.203125 23.390625 
L 4.890625 23.390625 
z
" id="DejaVuSans-45"/>
    </defs>
    <g style="opacity:0.5;" transform="translate(146.1125 47.239219)scale(0.1 -0.1)">
     <use xlink:href="#DejaVuSans-60"/>
     <use x="83.789062" xlink:href="#DejaVuSans-40"/>
     <use x="122.802734" xlink:href="#DejaVuSans-45"/>
     <use x="158.886719" xlink:href="#DejaVuSans-49"/>
     <use x="222.509766" xlink:href="#DejaVuSans-44"/>
     <use x="254.296875" xlink:href="#DejaVuSans-32"/>
     <use x="286.083984" xlink:href="#DejaVuSans-53"/>
     <use x="349.707031" xlink:href="#DejaVuSans-41"/>
     <use x="388.720703" xlink:href="#DejaVuSans-62"/>
    </g>
   </g>
   <g id="text_20">
    <!-- &lt;(-3, 4)&gt; -->
    <g style="opacity:0.5;" transform="translate(62.4125 83.479219)scale(0.1 -0.1)">
     <use xlink:href="#DejaVuSans-60"/>
     <use x="83.789062" xlink:href="#DejaVuSans-40"/>
     <use x="122.802734" xlink:href="#DejaVuSans-45"/>
     <use x="158.886719" xlink:href="#DejaVuSans-51"/>
     <use x="222.509766" xlink:href="#DejaVuSans-44"/>
     <use x="254.296875" xlink:href="#DejaVuSans-32"/>
     <use x="286.083984" xlink:href="#DejaVuSans-52"/>
     <use x="349.707031" xlink:href="#DejaVuSans-41"/>
     <use x="388.720703" xlink:href="#DejaVuSans-62"/>
    </g>
   </g>
   <g id="text_21">
    <!-- &lt;(-2, 1)&gt; -->
    <g style="opacity:0.5;" transform="translate(104.2625 192.199219)scale(0.1 -0.1)">
     <use xlink:href="#DejaVuSans-60"/>
     <use x="83.789062" xlink:href="#DejaVuSans-40"/>
     <use x="122.802734" xlink:href="#DejaVuSans-45"/>
     <use x="158.886719" xlink:href="#DejaVuSans-50"/>
     <use x="222.509766" xlink:href="#DejaVuSans-44"/>
     <use x="254.296875" xlink:href="#DejaVuSans-32"/>
     <use x="286.083984" xlink:href="#DejaVuSans-49"/>
     <use x="349.707031" xlink:href="#DejaVuSans-41"/>
     <use x="388.720703" xlink:href="#DejaVuSans-62"/>
    </g>
   </g>
   <g id="text_22">
    <!-- &lt;(-0.51, 2.93)&gt; -->
    <defs>
     <path d="M 10.6875 12.40625 
L 21 12.40625 
L 21 0 
L 10.6875 0 
z
" id="DejaVuSans-46"/>
     <path d="M 10.984375 1.515625 
L 10.984375 10.5 
Q 14.703125 8.734375 18.5 7.8125 
Q 22.3125 6.890625 25.984375 6.890625 
Q 35.75 6.890625 40.890625 13.453125 
Q 46.046875 20.015625 46.78125 33.40625 
Q 43.953125 29.203125 39.59375 26.953125 
Q 35.25 24.703125 29.984375 24.703125 
Q 19.046875 24.703125 12.671875 31.3125 
Q 6.296875 37.9375 6.296875 49.421875 
Q 6.296875 60.640625 12.9375 67.421875 
Q 19.578125 74.21875 30.609375 74.21875 
Q 43.265625 74.21875 49.921875 64.515625 
Q 56.59375 54.828125 56.59375 36.375 
Q 56.59375 19.140625 48.40625 8.859375 
Q 40.234375 -1.421875 26.421875 -1.421875 
Q 22.703125 -1.421875 18.890625 -0.6875 
Q 15.09375 0.046875 10.984375 1.515625 
z
M 30.609375 32.421875 
Q 37.25 32.421875 41.125 36.953125 
Q 45.015625 41.5 45.015625 49.421875 
Q 45.015625 57.28125 41.125 61.84375 
Q 37.25 66.40625 30.609375 66.40625 
Q 23.96875 66.40625 20.09375 61.84375 
Q 16.21875 57.28125 16.21875 49.421875 
Q 16.21875 41.5 20.09375 36.953125 
Q 23.96875 32.421875 30.609375 32.421875 
z
" id="DejaVuSans-57"/>
    </defs>
    <g style="opacity:0.5;" transform="translate(166.619 122.256019)scale(0.1 -0.1)">
     <use xlink:href="#DejaVuSans-60"/>
     <use x="83.789062" xlink:href="#DejaVuSans-40"/>
     <use x="122.802734" xlink:href="#DejaVuSans-45"/>
     <use x="158.886719" xlink:href="#DejaVuSans-48"/>
     <use x="222.509766" xlink:href="#DejaVuSans-46"/>
     <use x="254.296875" xlink:href="#DejaVuSans-53"/>
     <use x="317.919922" xlink:href="#DejaVuSans-49"/>
     <use x="381.542969" xlink:href="#DejaVuSans-44"/>
     <use x="413.330078" xlink:href="#DejaVuSans-32"/>
     <use x="445.117188" xlink:href="#DejaVuSans-50"/>
     <use x="508.740234" xlink:href="#DejaVuSans-46"/>
     <use x="540.527344" xlink:href="#DejaVuSans-57"/>
     <use x="604.150391" xlink:href="#DejaVuSans-51"/>
     <use x="667.773438" xlink:href="#DejaVuSans-41"/>
     <use x="706.787109" xlink:href="#DejaVuSans-62"/>
    </g>
   </g>
   <g id="text_23">
    <!-- &lt;(-0.51, 2.93)&gt; -->
    <g style="opacity:0.5;" transform="translate(166.619 122.256019)scale(0.1 -0.1)">
     <use xlink:href="#DejaVuSans-60"/>
     <use x="83.789062" xlink:href="#DejaVuSans-40"/>
     <use x="122.802734" xlink:href="#DejaVuSans-45"/>
     <use x="158.886719" xlink:href="#DejaVuSans-48"/>
     <use x="222.509766" xlink:href="#DejaVuSans-46"/>
     <use x="254.296875" xlink:href="#DejaVuSans-53"/>
     <use x="317.919922" xlink:href="#DejaVuSans-49"/>
     <use x="381.542969" xlink:href="#DejaVuSans-44"/>
     <use x="413.330078" xlink:href="#DejaVuSans-32"/>
     <use x="445.117188" xlink:href="#DejaVuSans-50"/>
     <use x="508.740234" xlink:href="#DejaVuSans-46"/>
     <use x="540.527344" xlink:href="#DejaVuSans-57"/>
     <use x="604.150391" xlink:href="#DejaVuSans-51"/>
     <use x="667.773438" xlink:href="#DejaVuSans-41"/>
     <use x="706.787109" xlink:href="#DejaVuSans-62"/>
    </g>
   </g>
   <g id="text_24">
    <!-- &lt;(-0.51, 2.93)&gt; -->
    <g style="opacity:0.5;" transform="translate(166.619 122.256019)scale(0.1 -0.1)">
     <use xlink:href="#DejaVuSans-60"/>
     <use x="83.789062" xlink:href="#DejaVuSans-40"/>
     <use x="122.802734" xlink:href="#DejaVuSans-45"/>
     <use x="158.886719" xlink:href="#DejaVuSans-48"/>
     <use x="222.509766" xlink:href="#DejaVuSans-46"/>
     <use x="254.296875" xlink:href="#DejaVuSans-53"/>
     <use x="317.919922" xlink:href="#DejaVuSans-49"/>
     <use x="381.542969" xlink:href="#DejaVuSans-44"/>
     <use x="413.330078" xlink:href="#DejaVuSans-32"/>
     <use x="445.117188" xlink:href="#DejaVuSans-50"/>
     <use x="508.740234" xlink:href="#DejaVuSans-46"/>
     <use x="540.527344" xlink:href="#DejaVuSans-57"/>
     <use x="604.150391" xlink:href="#DejaVuSans-51"/>
     <use x="667.773438" xlink:href="#DejaVuSans-41"/>
     <use x="706.787109" xlink:href="#DejaVuSans-62"/>
    </g>
   </g>
  </g>
 </g>
 <defs>
  <clipPath id="pd0c505c2dc">
   <rect height="217.44" width="334.8" x="20.5625" y="10.999219"/>
  </clipPath>
 </defs>
</svg>
